<?xml version="1.0" standalone="no"?>
<!DOCTYPE svg PUBLIC "-//W3C//DTD SVG 1.1//EN" "http://www.w3.org/Graphics/SVG/1.1/DTD/svg11.dtd" >
<svg xmlns="http://www.w3.org/2000/svg">
<metadata></metadata>
<defs>
<font id="symantec_sansregular" horiz-adv-x="1150" >
<font-face units-per-em="2048" ascent="1638" descent="-410" />
<missing-glyph horiz-adv-x="481" />
<glyph horiz-adv-x="0" />
<glyph horiz-adv-x="0" />
<glyph horiz-adv-x="682" />
<glyph unicode="&#xd;" horiz-adv-x="481" />
<glyph unicode=" "  horiz-adv-x="481" />
<glyph unicode="&#x09;" horiz-adv-x="481" />
<glyph unicode="&#xa0;" horiz-adv-x="481" />
<glyph unicode="!" horiz-adv-x="589" d="M172 106q0 53 35.5 89t87.5 36q51 0 87 -36.5t36 -88.5q0 -51 -35.5 -84.5t-87.5 -33.5q-53 0 -88 33.5t-35 84.5zM193 1440h204l-37 -1004h-131z" />
<glyph unicode="&#x22;" horiz-adv-x="757" d="M150 1440h167l-18 -508h-131zM442 1440h166l-18 -508h-129z" />
<glyph unicode="#" d="M84 418v141h211l35 301h-195v139h211l45 402h129l-45 -402h270l48 402h129q-46 -402 -48 -402h191v-139h-205l-35 -301h191v-141h-207l-49 -418h-131l49 418h-270l-48 -418h-129l48 418h-195zM424 559h270l35 301h-270z" />
<glyph unicode="$" d="M84 160l92 119q151 -131 348 -146v518q-64 19 -113 39t-101 53.5t-85.5 74t-55.5 101t-22 134.5q0 161 103.5 257.5t273.5 108.5v156h123v-158q187 -16 332 -139l-92 -115q-110 89 -240 103v-478q66 -19 116.5 -38.5t105 -53.5t90 -75t58.5 -102t23 -136 q0 -168 -102.5 -273t-290.5 -122v-217h-123v215q-144 8 -256 56.5t-184 117.5zM313 1055q0 -91 51 -144t160 -88v447q-101 -11 -156 -65t-55 -150zM647 135q105 15 163 76.5t58 163.5q0 99 -56 153t-165 88v-481z" />
<glyph unicode="%" horiz-adv-x="1882" d="M102 979q0 202 95 322t241 120t240 -110t94 -310q0 -202 -96 -327t-240 -125q-146 0 -240 115t-94 315zM266 979q0 -307 172 -307q80 0 127 81t47 244q0 301 -174 301q-81 0 -126.5 -78t-45.5 -241zM471 0l799 1401h141l-799 -1401h-141zM1110 414q0 201 95.5 321.5 t240.5 120.5t239.5 -110.5t94.5 -309.5q0 -203 -95.5 -327.5t-238.5 -124.5q-147 0 -241.5 114.5t-94.5 315.5zM1274 414q0 -308 172 -308q80 0 127 80.5t47 243.5q0 301 -174 301q-81 0 -126.5 -77.5t-45.5 -239.5z" />
<glyph unicode="&#x26;" horiz-adv-x="1320" d="M104 346q0 93 36.5 169.5t99 135.5t161.5 121q-90 181 -90 344q0 146 89 245t241 99q141 0 222 -81.5t81 -219.5q0 -127 -83 -222.5t-257 -195.5q135 -227 287 -379q82 140 121 347l147 -25q-44 -254 -153 -422q119 -92 264 -137l-53 -143q-165 46 -310 157 q-158 -155 -381 -155q-198 0 -310 100t-112 262zM281 352q0 -108 64 -167.5t185 -59.5q151 0 265 111q-176 165 -330 421q-96 -66 -140 -137.5t-44 -167.5zM477 1128q0 -145 64 -276q129 77 187 150t58 161q0 77 -39 118.5t-104 41.5q-79 0 -122.5 -53.5t-43.5 -141.5z" />
<glyph unicode="'" horiz-adv-x="466" d="M150 1440h167l-18 -508h-131z" />
<glyph unicode="(" horiz-adv-x="643" d="M172 616q0 279 66.5 491t193.5 415h152q-116 -211 -172 -425.5t-56 -480.5t56 -477t174 -422h-152q-128 204 -195 415t-67 484z" />
<glyph unicode=")" horiz-adv-x="643" d="M57 1522h152q83 -133 137.5 -257.5t89.5 -290.5t35 -353q0 -279 -66 -489.5t-194 -414.5h-152q116 211 172 424.5t56 479.5t-56 478t-174 423z" />
<glyph unicode="*" horiz-adv-x="882" d="M94 1145l37 123l250 -86l-10 258h139l-14 -258l254 86l38 -123l-253 -76l165 -213l-100 -72l-158 215l-155 -215l-107 72l164 213z" />
<glyph unicode="+" horiz-adv-x="1228" d="M129 526v148h408v432h151v-432h412v-148h-412v-434h-151v434h-408z" />
<glyph unicode="," horiz-adv-x="532" d="M143 106q0 53 34 89t83 36q57 0 96 -42t39 -117q0 -109 -53.5 -194.5t-148.5 -141.5l-48 63q47 39 76 91t29 100q-41 0 -74 33.5t-33 82.5z" />
<glyph unicode="-" horiz-adv-x="690" d="M127 500v151h436v-151h-436z" />
<glyph unicode="." horiz-adv-x="534" d="M145 106q0 53 34.5 89t86.5 36t87.5 -36t35.5 -89q0 -51 -35 -84.5t-88 -33.5q-52 0 -86.5 33.5t-34.5 84.5z" />
<glyph unicode="/" horiz-adv-x="772" d="M-86 -283l707 1866h155l-706 -1866h-156z" />
<glyph unicode="0" d="M90 698q0 153 31 283.5t90 229t152.5 154.5t211.5 56q154 0 265.5 -91.5t166 -246t54.5 -354.5q0 -169 -30.5 -305t-90 -234.5t-154 -152t-217.5 -53.5q-154 0 -264 97t-162.5 255.5t-52.5 361.5zM279 694q0 -567 294 -567q299 0 299 590q0 555 -297 555 q-296 0 -296 -578z" />
<glyph unicode="1" d="M184 1198l371 203h123v-1264h262v-137h-715v137h275v1051l-279 -92z" />
<glyph unicode="2" d="M143 0v176q358 299 500.5 481t142.5 359q0 110 -59.5 180t-171.5 70q-86 0 -157.5 -29t-161.5 -92l-76 121q187 155 405 155q187 0 298.5 -111.5t111.5 -291.5q0 -113 -45 -222.5t-135.5 -218t-205.5 -210.5t-276 -222h699v-145h-869z" />
<glyph unicode="3" d="M96 154l94 122q154 -139 365 -139q134 0 208.5 64.5t74.5 185.5q0 272 -385 272h-43v138h43q170 0 257 63.5t87 183.5q0 106 -66 165t-180 59q-92 0 -167.5 -26.5t-158.5 -78.5l-71 119q95 71 189.5 105t211.5 34q186 0 307 -98.5t121 -261.5q0 -121 -68.5 -205 t-189.5 -123q132 -27 215.5 -119.5t83.5 -226.5q0 -190 -127.5 -296.5t-335.5 -106.5q-151 0 -270 49t-195 121z" />
<glyph unicode="4" d="M76 322v122l545 957h253v-936h211v-143h-211v-322h-174v322h-624zM256 465h444v797z" />
<glyph unicode="5" d="M125 123l88 123q128 -109 313 -109q147 0 234.5 90t87.5 258q0 152 -70.5 236t-195.5 84q-76 0 -144.5 -36.5t-118.5 -104.5l-151 53l43 684h725v-144h-586l-31 -432q60 60 129 88.5t162 28.5q99 0 180 -35.5t134.5 -97t82.5 -143t29 -174.5q0 -221 -137 -364.5 t-377 -143.5q-244 0 -397 139z" />
<glyph unicode="6" d="M119 616q0 370 155 587.5t414 217.5q93 0 160.5 -17.5t138.5 -55.5l-63 -136q-119 56 -236 56q-346 0 -385 -561q51 83 139 137.5t197 54.5q124 0 220.5 -60t146 -158.5t49.5 -217.5q0 -133 -55 -241.5t-158 -173t-234 -64.5q-223 0 -356 169t-133 463zM307 512 q0 -78 17 -145.5t51.5 -122.5t93.5 -87t135 -32q55 0 100.5 18.5t76 50.5t51.5 75.5t30.5 91.5t9.5 100q0 132 -67 212.5t-201 80.5q-100 0 -178.5 -58t-118.5 -149v-35z" />
<glyph unicode="7" d="M141 1255v146h858v-98l-555 -1303h-192l547 1255h-658z" />
<glyph unicode="8" d="M96 344q0 76 23 137t68 106.5t98 78.5t125 63q-125 62 -195 144.5t-70 201.5q0 104 60 184t158.5 121t218.5 41q186 0 305 -89.5t119 -252.5q0 -126 -71 -204.5t-202 -135.5q74 -31 127.5 -63.5t100 -78t70.5 -106.5t24 -137q0 -121 -67 -206t-175 -124.5t-246 -39.5 q-213 0 -342 96t-129 264zM281 352q0 -111 80.5 -173t211.5 -62q138 0 216.5 62t78.5 169q0 60 -22 108.5t-67.5 86.5t-97 66t-126.5 59q-63 -27 -109 -54.5t-85.5 -65t-59.5 -87t-20 -109.5zM324 1073q0 -97 68.5 -159.5t197.5 -116.5q115 50 176 115.5t61 164.5 q0 97 -66.5 152t-185.5 55q-118 0 -184.5 -57t-66.5 -154z" />
<glyph unicode="9" d="M98 956q0 201 122.5 333t330.5 132q227 0 354 -166.5t127 -457.5q0 -256 -58.5 -435t-185 -278.5t-315.5 -99.5q-199 0 -344 106l72 127q131 -82 274 -82q78 0 138.5 28.5t101 78t69 124.5t43.5 159t23 190q-57 -85 -141 -138t-195 -53q-187 0 -301.5 126t-114.5 306z M279 956q0 -130 66.5 -207t203.5 -77q100 0 177 57t116 148v20q0 76 -15.5 141.5t-48.5 120.5t-91 87t-136 32q-73 0 -127 -26t-85 -72.5t-45.5 -102t-14.5 -121.5z" />
<glyph unicode=":" horiz-adv-x="534" d="M145 106q0 53 34.5 89t86.5 36t87.5 -36t35.5 -89q0 -51 -35 -84.5t-88 -33.5q-52 0 -86.5 33.5t-34.5 84.5zM145 782q0 53 34.5 89t86.5 36t87.5 -36t35.5 -89q0 -51 -35 -84.5t-88 -33.5q-52 0 -86.5 33.5t-34.5 84.5z" />
<glyph unicode=";" horiz-adv-x="532" d="M143 106q0 53 34 89t83 36q57 0 96 -42t39 -117q0 -109 -53.5 -194.5t-148.5 -141.5l-48 63q47 39 76 91t29 100q-41 0 -74 33.5t-33 82.5zM143 782q0 53 34.5 89t86.5 36t87.5 -36t35.5 -89q0 -51 -35 -84.5t-88 -33.5q-52 0 -86.5 33.5t-34.5 84.5z" />
<glyph unicode="&#x3c;" horiz-adv-x="1228" d="M129 508v145l971 387v-166l-783 -292l783 -314l-2 -164z" />
<glyph unicode="=" horiz-adv-x="1228" d="M182 334v149h862v-149h-862zM182 711v145h862v-145h-862z" />
<glyph unicode="&#x3e;" horiz-adv-x="1228" d="M129 104v166l782 293l-782 316v161l971 -403v-145z" />
<glyph unicode="?" horiz-adv-x="878" d="M98 1339q134 121 328 121q157 0 253.5 -85.5t96.5 -229.5q0 -63 -15 -115.5t-47 -98t-58 -73.5t-72 -70q-67 -62 -99 -124t-32 -166v-62h-152v60q0 73 11.5 131t35 102.5t47 74t60.5 66.5q38 36 56.5 56t42 53.5t33 70.5t9.5 83q0 81 -44.5 130.5t-135.5 49.5 q-127 0 -240 -90zM250 106q0 53 35.5 89t87.5 36t87.5 -36t35.5 -89q0 -51 -35 -84.5t-88 -33.5t-88 33.5t-35 84.5z" />
<glyph unicode="@" horiz-adv-x="1716" d="M102 522q0 191 68 359t184 286t274.5 186t334.5 68q204 0 358.5 -87.5t233.5 -232.5t79 -323q0 -307 -113.5 -469t-303.5 -162q-86 0 -141 36t-70 98q-46 -56 -112.5 -91.5t-133.5 -35.5q-128 0 -195 84t-67 217q0 276 125 426.5t317 150.5q174 0 295 -90l-92 -532 q-11 -66 7 -101t75 -35q119 0 193.5 131.5t74.5 370.5q0 232 -143 372t-396 140q-204 0 -364 -101t-247 -274.5t-87 -386.5q0 -142 32.5 -253.5t100 -194.5t178.5 -127.5t262 -44.5q193 0 416 98l55 -104q-118 -68 -235 -96.5t-252 -28.5q-169 0 -305.5 58t-224.5 159 t-134.5 236.5t-46.5 293.5zM668 453q0 -168 123 -168q53 0 95 22t91 70l88 495q-59 25 -135 25q-122 0 -192 -116.5t-70 -327.5z" />
<glyph unicode="A" horiz-adv-x="1212" d="M55 0l437 1440h233l432 -1440h-188l-119 422h-500l-121 -422h-174zM391 563h418l-207 729z" />
<glyph unicode="B" horiz-adv-x="1220" d="M186 0v1440h406q101 0 184.5 -21t148 -64t100.5 -114t36 -164q0 -251 -250 -317q143 -28 224 -121.5t81 -241.5q0 -195 -124 -296t-339 -101h-467zM362 141h244q322 0 322 262q0 156 -93.5 220.5t-273.5 64.5h-199v-547zM362 823h201q167 0 241.5 59t74.5 191 q0 119 -81.5 172t-250.5 53h-185v-475z" />
<glyph unicode="C" horiz-adv-x="1222" d="M127 721q0 338 151 538.5t422 200.5q260 0 418 -186l-108 -115q-70 74 -143.5 110t-166.5 36q-191 0 -286 -155t-95 -439q0 -276 95.5 -423t287.5 -147q104 0 180.5 43t151.5 125l111 -110q-171 -215 -445 -215q-268 0 -420.5 198.5t-152.5 538.5z" />
<glyph unicode="D" horiz-adv-x="1327" d="M186 0v1440h328q690 0 690 -713q0 -361 -171.5 -544t-510.5 -183h-336zM367 147h133q144 0 243 35t158.5 109t86 179.5t26.5 256.5q0 136 -22.5 235t-76 176t-148 115.5t-232.5 38.5h-168v-1145z" />
<glyph unicode="E" horiz-adv-x="1128" d="M186 0v1440h826v-148h-645v-463h501v-145h-501v-537h682v-147h-863z" />
<glyph unicode="F" horiz-adv-x="1042" d="M186 0v1440h803v-148h-622v-463h491v-145h-491v-684h-181z" />
<glyph unicode="G" horiz-adv-x="1306" d="M127 721q0 223 66 388.5t198 258t316 92.5q134 0 233.5 -39t187.5 -127l-104 -116q-139 127 -319 127q-196 0 -291 -154.5t-95 -439.5q0 -278 95 -426t284 -148q164 0 285 125v342h-293v146h473v-750h-106l-41 125q-141 -141 -332 -141q-259 0 -408 198t-149 539z" />
<glyph unicode="H" horiz-adv-x="1370" d="M186 0v1440h181v-629h637v629h180v-1440h-180v664h-637v-664h-181z" />
<glyph unicode="I" horiz-adv-x="577" d="M199 0v1440h180v-1440h-180z" />
<glyph unicode="J" horiz-adv-x="905" d="M49 121l101 117q33 -31 57 -49t65.5 -34t87.5 -16q170 0 170 228v1073h181v-1061q0 -395 -349 -395q-102 0 -181.5 40.5t-131.5 96.5z" />
<glyph unicode="K" horiz-adv-x="1214" d="M186 0v1440h181v-725l555 725h204l-450 -572q0 1 121 -216t241 -434l121 -218h-205l-403 735q1 0 -35.5 -32t-84.5 -75t-64 -57v-1v-1v-1v-1v-1v-1v-1v-1v-1v-1v-1v-1v-1v-1v-1v-1v-1v-1v-1v-1v-1v-1v-1v-1v-1v-1v-1v-1v-1v-1v-1v-1v-1v-1v-1v-1v-1v-1v-1v-1v-1v-1v-1v-1 v-1v-1v-1v-1v-1v-1v-1v-1v-1v-1v-1v-1v-1v-1v-1v-1v-1v-1v-1v-1v-1v-1v-1v-1v-1v-1v-1v-1v-1v-1v-1v-1v-1v-1v-1v-1v-1v-1v-1v-1v-1v-1v-1v-1v-1v-1v-1v-1v-1v-1v-1v-1v-1v-1v-1v-1v-1v-1v-1v-1v-1v-1v-1v-1v-1v-1v-2v-1v-1v-1v-1v-1v-1v-1v-1v-1v-2v-1v-1v-1v-1v-1v-1v-2 v-1v-1v-1v-1v-1v-1v-2v-1v-1v-1v-1v-2v-1v-1v-1v-1v-2v-1v-1v-1v-1v-2v-1v-1v-1v-2v-1v-1v-1v-2v-1v-1v-1v-2v-1v-1v-1v-2v-1v-1v-1v-2v-1v-1v-2v-1v-1v-2v-1v-1v-1v-2v-1v-1v-2v-1v-1v-2v-1v-1v-2v-1v-1v-2v-1v-2v-1v-1v-2v-1v-1v-2v-1v-2v-1v-1v-2v-1v-1v-2v-1v-2v-1v-1 v-2v-1v-2v-1v-2v-1v-1v-2v-1v-2v-1v-2v-1v-2v-1v-1v-2v-1v-2v-1v-2v-1v-2v-1v-2v-1v-2v-1v-2v-1v-2v-1v-2v-1v-2v-1v-2v-1v-2v-1v-2v-1v-2v-1v-2v-1v-2v-1v-2v-1v-2v-2v-1v-2v-1v-2v-1v-2v-1v-2v-2v-1v-2v-1v-2v-1v-2v-2v-1v-2v-1v-2v-2v-1v-2v-1v-2v-2v-1v-2v-2v-1v-2v-1 v-2v-2v-1v-2v-2v-1v-2v-1v-2v-2v-1v-2v-2v-1v-2v-2v-1v-2v-2v-1v-2v-2v-1v-2v-2v-2v-1v-2v-2v-1v-2v-2v-1v-2v-2v-2v-1v-2v-2v-1v-2v-2v-2v-1v-2v-2v-2v-1v-2v-2v-2v-1v-2v-2v-2v-1v-2v-2v-2v-1v-2v-2v-2v-2v-1v-2v-2v-2v-2v-1v-2v-2v-2v-2v-1v-2v-2v-2v-2v-1v-2v-2v-2v-2 v-2v-1v-2v-2v-2v-2v-2v-1v-2v-2v-2v-2v-2v-2v-1v-2v-2v-2v-2v-2v-2v-2v-1v-2v-2v-2v-2v-9h-181z" />
<glyph unicode="L" horiz-adv-x="1052" d="M186 0v1440h181v-1293h626v-147h-807z" />
<glyph unicode="M" horiz-adv-x="1654" d="M186 0v1440h279l283 -955q58 -195 81 -335q26 155 78 335l281 955h280v-1440h-178v985q0 143 8 307l-380 -1292h-187l-383 1292q8 -84 8 -309v-983h-170z" />
<glyph unicode="N" horiz-adv-x="1372" d="M186 0v1440h213l484 -891q76 -143 137 -287q-8 118 -8 369v809h170v-1440h-183l-524 967q-62 119 -127 268q8 -188 8 -369v-866h-170z" />
<glyph unicode="O" horiz-adv-x="1366" d="M123 721q0 338 149.5 538.5t409.5 200.5q262 0 411.5 -196t149.5 -533q0 -345 -152 -546t-411 -201t-408 195.5t-149 541.5zM311 715q0 -282 93.5 -432t275.5 -150t277.5 154t95.5 440q0 281 -93 432.5t-276 151.5q-184 0 -278.5 -155.5t-94.5 -440.5z" />
<glyph unicode="P" horiz-adv-x="1169" d="M186 0v1440h396q503 0 503 -406q0 -111 -38.5 -192.5t-107.5 -128t-154.5 -68.5t-190.5 -22h-227v-623h-181zM367 766h202q167 0 249.5 59.5t82.5 210.5q0 75 -22.5 126t-67.5 79t-100 39.5t-131 11.5h-213v-526z" />
<glyph unicode="Q" horiz-adv-x="1363" d="M123 721q0 338 149.5 538.5t409.5 200.5q262 0 411.5 -196t149.5 -533q0 -356 -164 -559l176 -174l-65 -72l-211 150q-131 -92 -299 -92q-259 0 -408 195.5t-149 541.5zM311 715q0 -284 94 -435t277 -151q104 0 180 49l-162 162l107 104l156 -155q90 156 90 438 q0 281 -93 432.5t-276 151.5q-184 0 -278.5 -155.5t-94.5 -440.5z" />
<glyph unicode="R" horiz-adv-x="1220" d="M186 0v1440h416q87 0 160 -12.5t137 -41.5t109 -74.5t70.5 -114t25.5 -155.5q0 -155 -79 -247t-208 -131q0 1 76.5 -165t152.5 -333l76 -166h-196l-291 641h-1h-1h-1h-1h-1h-1h-1h-1h-1h-1h-1h-1h-1h-1h-1h-1h-1h-1h-1h-1h-1h-1h-1h-1h-1h-1h-1h-1h-1h-1h-1h-1h-1h-1h-1 h-1h-1h-1h-1h-1h-1h-1h-1h-1h-1h-1h-1h-2h-1h-1h-1h-1h-1h-1h-1h-1h-1h-1h-2h-1h-1h-1h-1h-1h-2h-1h-1h-1h-1h-2h-1h-1h-1h-2h-1h-1h-1h-2h-1h-1h-2h-1h-1h-1h-2h-1h-1h-2h-1h-1h-2h-1h-2h-1h-1h-2h-1h-2h-1h-1h-2h-1h-2h-1h-2h-1h-1h-2h-1h-2h-1h-2h-1h-2h-1h-2h-1h-2h-1 h-2h-1h-2h-1h-2h-2h-1h-2h-1h-2h-1h-2h-2h-1h-2h-1h-2h-2h-1h-2h-1h-2h-2h-1h-2h-2h-1h-2h-2h-1h-2h-2h-1h-2h-2h-2h-1h-2h-2h-1h-2h-2h-2h-1h-2h-2h-2h-1h-2h-2h-2h-1h-2h-2h-2h-2h-1h-2h-2h-2h-2h-2h-1h-2h-2h-2h-2h-2h-1h-10v-641h-181zM367 782h223q166 0 248 58t82 204 q0 140 -82 194t-238 54h-233v-510z" />
<glyph unicode="S" horiz-adv-x="1142" d="M74 150l88 126q180 -139 405 -139q141 0 219 64t78 180q0 50 -16.5 90.5t-41 67.5t-71 53t-86.5 42t-108 40q-71 25 -121 47t-105.5 58.5t-89 78.5t-56 104t-22.5 138q0 170 119.5 265t308.5 95q125 0 212.5 -21.5t173.5 -70.5l-74 -139q-140 78 -314 78 q-121 0 -189.5 -50t-68.5 -155q0 -57 17.5 -97t61.5 -72t93.5 -54.5t139.5 -53.5q52 -18 87 -31.5t82 -36.5t78.5 -45.5t65.5 -56.5t54 -71.5t33 -88.5t13 -110q0 -189 -125.5 -295t-347.5 -106q-160 0 -284 47.5t-209 118.5z" />
<glyph unicode="T" horiz-adv-x="1075" d="M49 1292v148h975v-148h-395v-1292h-180v1292h-400z" />
<glyph unicode="U" horiz-adv-x="1325" d="M178 557v883h180v-922q0 -95 13 -161.5t46 -119t94 -78.5t151 -26t150.5 26t94 78.5t47 119.5t13.5 161v922h180v-883q0 -135 -23.5 -235.5t-78 -179t-151 -118.5t-235.5 -40q-109 0 -191.5 27t-137 75t-89 121t-49 158t-14.5 192z" />
<glyph unicode="V" horiz-adv-x="1202" d="M57 1440h193l356 -1239l359 1239h180l-440 -1440h-209z" />
<glyph unicode="W" horiz-adv-x="1728" d="M63 1440h189l233 -1202l275 1202h213l274 -1202l240 1202h178l-311 -1440h-201l-291 1225l-280 -1225h-203z" />
<glyph unicode="X" horiz-adv-x="1146" d="M55 0l418 756l-387 684h203l295 -549l274 549h189l-373 -695l418 -745h-201l-326 604l-321 -604h-189z" />
<glyph unicode="Y" horiz-adv-x="1107" d="M33 1440h198l328 -672l332 672h184l-434 -832v-608h-180v608z" />
<glyph unicode="Z" horiz-adv-x="1079" d="M74 0v119l721 1169h-660v152h871v-129l-721 -1164h710v-147h-921z" />
<glyph unicode="[" horiz-adv-x="681" d="M205 -283v1805h403v-125h-233v-1555h233v-125h-403z" />
<glyph unicode="\" horiz-adv-x="774" d="M-4 1583h158l706 -1866h-155z" />
<glyph unicode="]" horiz-adv-x="681" d="M74 -158h233v1555h-233v125h403v-1805h-403v125z" />
<glyph unicode="^" horiz-adv-x="1081" d="M94 1010l387 430h119l387 -430h-153l-293 239l-318 -239h-129z" />
<glyph unicode="_" horiz-adv-x="886" d="M-2 -162h891v-125h-891v125z" />
<glyph unicode="`" horiz-adv-x="614" d="M45 1440h227l107 -269h-135z" />
<glyph unicode="a" horiz-adv-x="1050" d="M106 268q0 166 138 250q128 79 467 129v47q0 109 -42.5 159t-150.5 50q-117 0 -293 -90l-65 121q182 117 372 117q359 0 359 -369v-682h-105l-47 123q-60 -60 -142 -99.5t-175 -39.5q-137 0 -226.5 78.5t-89.5 205.5zM289 281q0 -158 160 -158q125 0 262 102v305 q-321 -61 -389 -145q-33 -38 -33 -104z" />
<glyph unicode="b" horiz-adv-x="1130" d="M172 0v1440h180v-525q51 57 124.5 96.5t158.5 39.5q99 0 177 -46t124 -121.5t70 -164.5t24 -184q0 -246 -117 -398.5t-307 -152.5q-174 0 -289 141l-38 -125h-107zM352 231q52 -56 102 -82t117 -26q129 0 198 107.5t69 304.5q0 54 -7 103t-24.5 97.5t-44.5 84t-70 57.5 t-98 22q-131 0 -242 -117v-551z" />
<glyph unicode="c" horiz-adv-x="950" d="M100 508q0 82 14.5 158t47.5 147t82.5 123t124 83.5t166.5 31.5q192 0 321 -109l-78 -121q-113 84 -241 84q-248 0 -248 -397q0 -379 254 -379q73 0 130 25t115 73l86 -106q-133 -137 -339 -137q-91 0 -165 30t-123.5 80t-83 118t-48.5 142t-15 154z" />
<glyph unicode="d" horiz-adv-x="1130" d="M100 500q0 245 116.5 398t301.5 153q154 0 260 -109v498h180v-1440h-106l-45 141q-55 -71 -133 -114t-170 -43q-101 0 -180 42.5t-127 115.5t-72.5 164t-24.5 194zM293 496q0 -64 6.5 -116.5t23 -101.5t44 -82t71.5 -53t103 -20q126 0 237 121v553q-96 102 -221 102 q-128 0 -196 -104t-68 -299z" />
<glyph unicode="e" horiz-adv-x="1026" d="M100 514q0 240 115 388.5t307 148.5q198 0 303 -141.5t105 -401.5v-43h-639q6 -169 69 -253.5t191 -84.5q56 0 108.5 15t85.5 33t86 52l76 -108q-84 -69 -165 -102t-205 -33q-200 0 -318.5 143t-118.5 387zM291 586h454q-9 329 -223 329q-211 0 -231 -329z" />
<glyph unicode="f" horiz-adv-x="690" d="M80 903v127h145v113q0 154 72 238.5t219 84.5q76 0 146 -12l-17 -143q-67 10 -110 10q-69 0 -99 -43t-30 -135v-113h221v-127h-221v-903h-181v903h-145z" />
<glyph unicode="g" horiz-adv-x="1052" d="M70 -133q0 150 178 223q-43 18 -72 57.5t-29 88.5q0 112 123 172q-73 46 -112 120.5t-39 169.5q0 152 109.5 252.5t275.5 100.5q124 0 215 -54l285 72v-162h-183q68 -91 68 -209q0 -160 -101.5 -256t-281.5 -96q-71 0 -146 21q-61 -34 -61 -88q0 -66 109 -74 q232 -17 307 -25q131 -15 201.5 -78t70.5 -170q0 -152 -126 -234.5t-369 -82.5q-212 0 -317 70t-105 182zM231 -109q0 -143 265 -143q167 0 244 46.5t77 123.5q0 43 -29 71.5t-88 35.5q-161 24 -305 24q-59 0 -111.5 -48t-52.5 -110zM285 700q0 -107 59 -166t160 -59 q102 0 161.5 59.5t59.5 165.5t-60.5 164t-158.5 58q-101 0 -161 -58t-60 -164z" />
<glyph unicode="h" horiz-adv-x="1136" d="M174 0v1440h180v-555q152 166 340 166q80 0 137.5 -29.5t87.5 -81t43 -109t13 -126.5v-705h-180v705q0 42 -6.5 73t-22.5 59.5t-49 44t-82 15.5q-141 0 -281 -147v-750h-180z" />
<glyph unicode="i" horiz-adv-x="542" d="M156 1315q0 46 33.5 79t82.5 33t82 -33t33 -79q0 -48 -33 -80.5t-82 -32.5q-50 0 -83 33t-33 80zM182 0v1030h180v-1030h-180z" />
<glyph unicode="j" horiz-adv-x="542" d="M-39 -354l23 131q54 -13 88 -13q61 0 85.5 32t24.5 106v1128h180v-1116q0 -142 -60.5 -215.5t-205.5 -73.5q-74 0 -135 21zM156 1315q0 46 33.5 79t82.5 33t82 -33t33 -79q0 -48 -33 -80.5t-82 -32.5q-50 0 -83 33t-33 80z" />
<glyph unicode="k" horiz-adv-x="1019" d="M174 0v1440h180v-887l381 477h197q-307 -375 -309 -375l354 -655h-195l-278 530q-150 -116 -150 -118v-412h-180z" />
<glyph unicode="l" horiz-adv-x="544" d="M182 0v1440h180v-1440h-180z" />
<glyph unicode="m" horiz-adv-x="1683" d="M174 0v1030h107l45 -166q172 187 350 187q95 0 148.5 -46.5t86.5 -132.5q74 82 164.5 130.5t184.5 48.5q75 0 128.5 -29.5t81.5 -81t40 -109t12 -126.5v-705h-181v705q0 43 -5 73t-18.5 59.5t-43 44.5t-74.5 15q-124 0 -262 -141v-756h-180v705q0 43 -5 73t-19 59.5 t-43.5 44.5t-74.5 15q-119 0 -262 -143v-754h-180z" />
<glyph unicode="n" horiz-adv-x="1136" d="M174 0v1030h107l45 -170q169 191 368 191q80 0 137.5 -29.5t87.5 -81t43 -109t13 -126.5v-705h-180v705q0 42 -6.5 73t-22.5 59.5t-49 44t-82 15.5q-141 0 -281 -147v-750h-180z" />
<glyph unicode="o" horiz-adv-x="1083" d="M100 508q0 243 122 393t321 150q198 0 319 -143t121 -378q0 -254 -117.5 -400t-322.5 -146q-203 0 -323 141t-120 383zM291 512q0 -188 62.5 -289.5t189.5 -101.5q71 0 120.5 29t77.5 85.5t40 129.5t12 170q0 378 -252 378q-125 0 -187.5 -103.5t-62.5 -297.5z" />
<glyph unicode="p" horiz-adv-x="1130" d="M172 -365v1395h107l47 -139q138 160 305 160q81 0 149 -30.5t113.5 -81t77 -117.5t45.5 -139.5t14 -147.5q0 -246 -116.5 -398.5t-305.5 -152.5q-87 0 -145.5 27t-110.5 79v-455h-180zM352 231q52 -56 102 -82t117 -26q129 0 198 107.5t69 304.5q0 54 -7 103t-24.5 97.5 t-44.5 84t-70 57.5t-98 22q-131 0 -242 -117v-551z" />
<glyph unicode="q" horiz-adv-x="1130" d="M100 500q0 246 117.5 398.5t306.5 152.5q170 0 289 -146l39 125h106v-1395h-180v478q-115 -129 -276 -129q-100 0 -178.5 42.5t-126.5 115.5t-72.5 164t-24.5 194zM293 496q0 -64 6.5 -116.5t23 -101.5t44 -82t71.5 -53t103 -20q126 0 237 121v553q-51 54 -101 78 t-118 24q-130 0 -198 -103.5t-68 -299.5z" />
<glyph unicode="r" horiz-adv-x="770" d="M174 0v1030h98l58 -219q56 111 143.5 171t196.5 60h28v-174q-8 4 -28 4q-65 0 -120 -18.5t-100 -56.5t-70.5 -103t-25.5 -151v-543h-180z" />
<glyph unicode="s" horiz-adv-x="931" d="M90 100l72 117q134 -94 293 -94q96 0 149 38t53 109q0 70 -51 107t-182 84q-68 24 -115 48t-90 60.5t-64.5 88t-21.5 118.5q0 126 90 200.5t252 74.5q104 0 174 -19t139 -55l-57 -127q-124 63 -250 63q-184 0 -184 -135q0 -61 46 -95.5t161 -74.5q76 -25 127 -49 t99.5 -61.5t72.5 -91.5t24 -125q0 -138 -98.5 -217.5t-277.5 -79.5q-109 0 -205 33t-156 83z" />
<glyph unicode="t" horiz-adv-x="722" d="M63 903v127h158l45 295h131v-295h230v-127h-230v-635q0 -78 23.5 -112.5t91.5 -34.5q42 0 117 20l26 -125q-73 -32 -166 -32q-139 0 -205.5 67.5t-66.5 206.5v645h-154z" />
<glyph unicode="u" horiz-adv-x="1136" d="M162 326v704h180v-702q0 -42 7 -74t24 -60.5t50.5 -43.5t82.5 -15q133 0 276 133v762h181v-1030h-107l-47 158q-170 -174 -360 -174q-81 0 -139 28.5t-89 79.5t-45 108.5t-14 125.5z" />
<glyph unicode="v" horiz-adv-x="958" d="M51 1030h189l245 -858l242 858h180l-327 -1030h-199z" />
<glyph unicode="w" horiz-adv-x="1445" d="M55 1030h185l194 -801l201 801h186l197 -801l196 801h177l-281 -1030h-180l-207 819l-203 -819h-182z" />
<glyph unicode="x" horiz-adv-x="964" d="M49 0l326 537l-303 493h202l213 -377l211 377h189l-303 -498l331 -532h-202l-240 420l-237 -420h-187z" />
<glyph unicode="y" horiz-adv-x="964" d="M51 1030h185q258 -868 258 -870l241 870h178l-346 -1108q-46 -149 -131 -223t-229 -74q-60 0 -125 19l22 131q74 -11 86 -11q171 0 228 177z" />
<glyph unicode="z" horiz-adv-x="923" d="M88 0v137l528 758h-497v135h715v-112l-539 -775h541v-143h-748z" />
<glyph unicode="{" horiz-adv-x="681" d="M66 569v121h106q165 0 125 182l-61 291q-34 170 39 264.5t243 94.5h90v-125h-69q-89 0 -118 -48.5t-11 -158.5l45 -289q20 -116 -7.5 -179.5t-113.5 -92.5q85 -27 112.5 -90t10.5 -181l-47 -309q-18 -112 10.5 -159.5t118.5 -47.5h69v-125h-90q-171 0 -243.5 94 t-38.5 265l63 311q19 93 -12.5 137.5t-114.5 44.5h-106z" />
<glyph unicode="|" horiz-adv-x="632" d="M246 -283v1805h139v-1805h-139z" />
<glyph unicode="}" horiz-adv-x="681" d="M74 -158h69q90 0 118.5 47.5t10.5 159.5l-47 309q-17 118 10.5 181t112.5 90q-85 29 -112 91.5t-9 180.5l45 289q18 110 -11 158.5t-118 48.5h-69v125h90q170 0 243 -94.5t39 -264.5l-61 -291q-40 -182 125 -182h106v-121h-106q-83 0 -114.5 -44.5t-12.5 -137.5l63 -311 q34 -173 -38.5 -266t-243.5 -93h-90v125z" />
<glyph unicode="~" horiz-adv-x="970" d="M94 461q8 132 66 206t157 74q54 0 115.5 -29t118.5 -58t100 -29q44 0 67 28t36 86h123q-5 -56 -18 -102t-37 -86.5t-64 -63t-92 -22.5q-58 0 -123.5 29.5t-122.5 58.5t-92 29q-84 0 -111 -121h-123z" />
<glyph unicode="&#xa1;" horiz-adv-x="589" d="M172 1075q0 51 35 85t88 34t88 -34t35 -85q0 -53 -35.5 -89t-87.5 -36t-87.5 36t-35.5 89zM193 -258l36 1003h131l37 -1003h-204z" />
<glyph unicode="&#xa2;" d="M172 508q0 96 22 184t66.5 164t120.5 127t174 64v176h113v-174q162 -11 276 -125l-88 -113q-90 80 -188 90v-772q58 7 103.5 33t102.5 74l89 -103q-118 -131 -295 -147v-215h-113v217q-98 13 -173.5 62t-120 122t-67 158t-22.5 178zM362 508q0 -321 193 -373v762 q-193 -46 -193 -389z" />
<glyph unicode="&#xa3;" horiz-adv-x="1146" d="M145 610v144h134q-60 155 -60 272q0 178 114 286.5t300 108.5q229 0 385 -135l-78 -119q-79 53 -143 76t-152 23q-113 0 -175 -68t-62 -176q0 -49 9 -100t19 -83t29 -85h344v-144h-301q14 -65 14 -121q0 -125 -39 -200.5t-118 -143.5h649v-145h-842v164q60 43 95.5 81.5 t58 98t22.5 137.5q0 55 -18 129h-185z" />
<glyph unicode="&#xa4;" d="M55 471v125h142q-4 70 -4 106q0 53 2 80h-140v127h154q39 242 168.5 377t331.5 135q104 0 179.5 -30.5t149.5 -104.5l-96 -119q-65 58 -116 79.5t-121 21.5q-133 0 -208 -90.5t-100 -268.5h428l-32 -127h-406q-2 -29 -2 -90q0 -65 2 -96h358l-30 -125h-316 q53 -334 301 -334q84 0 138 28.5t123 94.5l100 -108q-74 -85 -158 -126.5t-207 -41.5q-193 0 -318.5 126.5t-166.5 360.5h-156z" />
<glyph unicode="&#xa5;" horiz-adv-x="1153" d="M63 1399h197l320 -662l323 662h184l-372 -715h289v-125h-340v-143h340v-127h-340v-289h-181v289h-331v127h331v143h-331v125h282z" />
<glyph unicode="&#xa6;" horiz-adv-x="624" d="M242 -352v719h139v-719h-139zM242 721v719h139v-719h-139z" />
<glyph unicode="&#xa7;" horiz-adv-x="1056" d="M96 621q0 171 176 266q-88 95 -88 227q0 141 107 224t266 83q111 0 188.5 -25.5t153.5 -78.5l-78 -133q-134 86 -266 86q-91 0 -147 -40t-56 -116q0 -21 2.5 -38.5t11 -34t14.5 -28t23.5 -26t27.5 -22.5t37 -23.5t41 -23t51 -27t56 -29.5q68 -35 112.5 -62t93 -66 t76 -78.5t45.5 -94t18 -119.5q0 -173 -170 -270q94 -94 94 -229q0 -147 -105.5 -232.5t-285.5 -85.5q-227 0 -369 113l78 129q120 -90 291 -90q108 0 165.5 44t57.5 118q0 23 -5.5 43t-12 35t-23.5 32t-29 27t-41 27.5t-45.5 27t-56.5 31t-62 33.5q-68 37 -112.5 64.5 t-93 67t-76.5 80t-46 95.5t-18 119zM264 629q0 -43 11.5 -77.5t29 -60t53.5 -52.5t69 -46t91 -49q21 -12 77 -41.5t85 -46.5q113 65 113 172q0 43 -11.5 78.5t-29 61t-53 52.5t-68 46t-90.5 49q-155 84 -164 90q-113 -65 -113 -176z" />
<glyph unicode="&#xa8;" horiz-adv-x="610" d="M20 1311q0 42 32 74t77 32t76 -31.5t31 -74.5q0 -45 -31 -76t-76 -31t-77 32t-32 75zM377 1311q0 42 30.5 74t75.5 32t76 -31.5t31 -74.5q0 -45 -31 -76t-76 -31t-75.5 31.5t-30.5 75.5z" />
<glyph unicode="&#xa9;" horiz-adv-x="1630" d="M113 721q0 159 56 299t151 237.5t224 154t271 56.5q149 0 280.5 -58.5t224 -158.5t145.5 -238t53 -292q0 -160 -56.5 -300t-151.5 -238t-224.5 -154t-272.5 -56q-200 0 -361 100.5t-250 271t-89 376.5zM213 715q0 -188 78 -337.5t213.5 -232t302.5 -82.5q126 0 238 48.5 t194 133.5t130 207t48 263q0 143 -48 267.5t-130 210.5t-194 135.5t-238 49.5q-167 0 -302.5 -84t-213.5 -236t-78 -343zM442 713q0 136 40.5 242t128 170.5t212.5 64.5q91 0 158 -30.5t125 -96.5l-100 -102q-43 43 -84.5 64.5t-96.5 21.5q-209 0 -209 -347 q0 -157 54.5 -236t156.5 -79q61 0 104.5 27t84.5 77l106 -98q-114 -149 -295 -149q-127 0 -215.5 62.5t-129 167t-40.5 241.5z" />
<glyph unicode="&#xaa;" horiz-adv-x="894" d="M104 793q0 132 107 198q106 67 373 109v33q0 82 -32.5 119.5t-115.5 37.5q-91 0 -233 -73l-58 110q154 94 306 94q294 0 294 -301v-545h-96l-39 97q-113 -109 -252 -109q-110 0 -182 63t-72 167zM264 805q0 -58 31 -89.5t92 -31.5q95 0 197 78v233q-239 -45 -293 -110 q-27 -39 -27 -80z" />
<glyph unicode="&#xab;" horiz-adv-x="970" d="M86 498l254 438h166l-250 -436l268 -420h-170zM438 498l252 438h166l-250 -436l268 -420h-167z" />
<glyph unicode="&#xac;" horiz-adv-x="1331" d="M106 926l56 82q76 -54 153 -54q41 0 66 17.5t25 48.5q0 36 -27.5 55t-97.5 41q-72 24 -111 61t-39 111q0 77 53 119.5t138 42.5q98 0 172 -47l-52 -84q-61 33 -118 33q-39 0 -60.5 -15.5t-21.5 -44.5q0 -20 14 -34t28 -20.5t50 -19.5l4.5 -1.5t3.5 -1.5t4 -1.5t4 -1.5 q36 -11 61.5 -23t53.5 -33t42.5 -54t14.5 -76q0 -77 -51 -123.5t-147 -46.5q-133 0 -218 70zM645 864v576h178l113 -420l111 420h178v-576h-117v441l-123 -441h-106l-121 441v-441h-113z" />
<glyph unicode="&#xad;" horiz-adv-x="690" d="M127 500v151h436v-151h-436z" />
<glyph unicode="&#xae;" horiz-adv-x="933" d="M92 1087q0 155 110 264t265 109q154 0 263.5 -109t109.5 -264q0 -153 -110 -262.5t-263 -109.5q-155 0 -265 109.5t-110 262.5zM160 1087q0 -133 87.5 -224t219.5 -91q131 0 218 91t87 224q0 134 -87 226t-218 92q-132 0 -219.5 -91.5t-87.5 -226.5zM322 889v411h151 q152 0 152 -126q0 -76 -72 -107l84 -178h-98l-74 164h-53v-164h-90zM412 1120h57q66 0 66 56q0 53 -60 53h-63v-109z" />
<glyph unicode="&#xaf;" horiz-adv-x="614" d="M76 1239v143h463v-143h-463z" />
<glyph unicode="&#xb0;" horiz-adv-x="706" d="M90 1190q0 113 77 191.5t187 78.5t187 -78.5t77 -191.5q0 -111 -77 -190.5t-187 -79.5t-187 79.5t-77 190.5zM213 1190q0 -70 39 -117t102 -47t102.5 47t39.5 117t-39.5 117t-102.5 47t-102 -47t-39 -117z" />
<glyph unicode="&#xb1;" horiz-adv-x="1228" d="M129 76v147h971v-147h-971zM129 698v148h408v346h151v-346h412v-148h-412v-348h-151v348h-408z" />
<glyph unicode="&#xb2;" horiz-adv-x="727" d="M82 561v131q79 66 122.5 103t94.5 83.5t75.5 76t48 65t32 66.5t8.5 65q0 59 -32 97t-91 38q-48 0 -91 -17.5t-102 -56.5l-63 99q128 102 268 102q124 0 195 -72.5t71 -183.5q0 -55 -21 -109t-53 -99t-84.5 -95t-99.5 -87.5t-114 -86.5h391v-119h-555z" />
<glyph unicode="&#xb3;" horiz-adv-x="731" d="M68 651l71 97q90 -76 203 -76q72 0 113 34t41 97q0 70 -49 103.5t-152 33.5h-33v111h33q180 0 180 123q0 57 -35 87.5t-94 30.5q-94 0 -188 -61l-60 94q60 45 120 66.5t138 21.5q114 0 189.5 -61t75.5 -158q0 -71 -42 -121t-112 -69q80 -14 130 -69t50 -138 q0 -117 -81.5 -181.5t-215.5 -64.5q-178 0 -282 100z" />
<glyph unicode="&#xb4;" horiz-adv-x="614" d="M236 1171l106 269h227l-198 -269h-135z" />
<glyph unicode="&#xb5;" horiz-adv-x="1136" d="M162 -365v1395h180v-702q0 -42 7 -74t24 -60.5t50.5 -43.5t82.5 -15q133 0 276 133v762h181v-1030h-107l-47 158q-81 -83 -163.5 -128.5t-186.5 -45.5q-69 0 -121 34l4 -383h-180z" />
<glyph unicode="&#xb6;" d="M84 1073q0 174 115.5 270.5t304.5 96.5h577v-133h-125v-1672h-139v1672h-143v-1672h-142l3 1072q-205 0 -328 94t-123 272z" />
<glyph unicode="&#xb7;" horiz-adv-x="534" d="M145 623q0 53 34.5 89t86.5 36t87.5 -36t35.5 -89q0 -50 -35.5 -84.5t-87.5 -34.5t-86.5 34.5t-34.5 84.5z" />
<glyph unicode="&#xb8;" horiz-adv-x="614" d="M158 -346l28 80q58 -21 93 -21q77 0 77 58q0 65 -135 65l68 164h94l-41 -88q60 -8 99.5 -44t39.5 -97q0 -73 -50.5 -111.5t-133.5 -38.5q-79 0 -139 33z" />
<glyph unicode="&#xb9;" horiz-adv-x="731" d="M117 1276l231 125h101v-737h145v-103h-442v103h155v579l-157 -51z" />
<glyph unicode="&#xba;" horiz-adv-x="923" d="M100 983q0 196 98.5 317t260.5 121q164 0 263 -114.5t99 -305.5q0 -202 -96.5 -320t-265.5 -118q-165 0 -262 113.5t-97 306.5zM268 989q0 -305 193 -305q48 0 83.5 19t55.5 48t32 73.5t15.5 85.5t3.5 94q0 294 -192 294q-95 0 -143 -79.5t-48 -229.5z" />
<glyph unicode="&#xbb;" horiz-adv-x="970" d="M96 936h170l266 -418l-251 -438h-164l248 436zM446 936h170l269 -418l-254 -438h-166l250 436z" />
<glyph unicode="&#xbc;" horiz-adv-x="1841" d="M117 1276l231 125h101v-737h145v-103h-442v103h155v579l-157 -51zM477 0l805 1401h137l-805 -1401h-137zM1110 184v101l317 555h199v-539h119v-117h-121v-184h-141v184h-373zM1249 301h234v422z" />
<glyph unicode="&#xbd;" horiz-adv-x="1841" d="M117 1276l231 125h101v-737h145v-103h-442v103h155v579l-157 -51zM434 0l805 1401h137l-805 -1401h-137zM1149 0v131q79 66 122.5 103t94.5 83.5t75.5 76t48 65t32 66.5t8.5 65q0 58 -32.5 96.5t-90.5 38.5q-48 0 -91 -17.5t-102 -56.5l-63 99q124 102 268 102 q124 0 195.5 -72.5t71.5 -183.5q0 -54 -21.5 -108.5t-53.5 -99t-84.5 -95.5t-99.5 -88t-114 -86h391v-119h-555z" />
<glyph unicode="&#xbe;" horiz-adv-x="1841" d="M68 651l71 97q90 -76 203 -76q72 0 113 34t41 97q0 70 -49 103.5t-152 33.5h-33v111h33q180 0 180 123q0 57 -35 87.5t-94 30.5q-94 0 -188 -61l-60 94q60 45 120 66.5t138 21.5q114 0 189.5 -61t75.5 -158q0 -71 -42 -121t-112 -69q80 -14 130 -69t50 -138 q0 -117 -81.5 -181.5t-215.5 -64.5q-178 0 -282 100zM475 0l803 1401h137l-805 -1401h-135zM1110 184v101l317 555h199v-539h119v-117h-121v-184h-141v184h-373zM1249 301h234v422z" />
<glyph unicode="&#xbf;" horiz-adv-x="880" d="M102 39q0 62 15 114t48.5 98t57.5 71.5t72 70.5q45 43 70.5 76t44 89t18.5 128v62h150v-62q0 -73 -11 -130.5t-34.5 -102t-47.5 -74.5t-61 -66q-39 -38 -56 -56.5t-41 -52.5t-33 -71t-9 -84q0 -80 44 -129t136 -49q130 0 237 88l80 -117q-134 -121 -327 -121 q-157 0 -255 86.5t-98 231.5zM385 1075q0 51 35 86t86 35q52 0 87.5 -35t35.5 -86q0 -53 -35.5 -89t-87.5 -36q-51 0 -86 36t-35 89z" />
<glyph unicode="&#xc0;" horiz-adv-x="1202" d="M55 0l437 1440h233l432 -1440h-188l-119 422h-500l-121 -422h-174zM340 1808h227l107 -268h-135zM391 563h418l-207 729z" />
<glyph unicode="&#xc1;" horiz-adv-x="1202" d="M55 0l437 1440h233l432 -1440h-188l-119 422h-500l-121 -422h-174zM391 563h418l-207 729zM520 1540l107 268h227l-199 -268h-135z" />
<glyph unicode="&#xc2;" horiz-adv-x="1202" d="M55 0l437 1440h233l432 -1440h-188l-119 422h-500l-121 -422h-174zM326 1540l188 272h178l185 -272h-142l-135 152l-133 -152h-141zM391 563h418l-207 729z" />
<glyph unicode="&#xc3;" horiz-adv-x="1202" d="M55 0l437 1440h233l432 -1440h-188l-119 422h-500l-121 -422h-174zM305 1556q3 96 51.5 165t124.5 69q47 0 90.5 -21t76.5 -42t54 -21q59 0 74 82h109q-3 -95 -50.5 -162t-123.5 -67q-37 0 -72.5 13.5t-57.5 29.5t-46.5 29.5t-42.5 13.5q-53 0 -74 -89h-113zM391 563h418 l-207 729z" />
<glyph unicode="&#xc4;" horiz-adv-x="1202" d="M55 0l437 1440h233l432 -1440h-188l-119 422h-500l-121 -422h-174zM313 1679q0 42 32 74.5t77 32.5t75.5 -31.5t30.5 -75.5q0 -45 -30.5 -75.5t-75.5 -30.5t-77 31.5t-32 74.5zM391 563h418l-207 729zM670 1679q0 42 30.5 74.5t75.5 32.5t76 -32t31 -75 q0 -45 -30.5 -75.5t-76.5 -30.5q-45 0 -75.5 31.5t-30.5 74.5z" />
<glyph unicode="&#xc5;" horiz-adv-x="1202" d="M55 0l434 1436q-44 27 -70 72t-26 98q0 82 59 140t144 58t144 -58t59 -140q0 -51 -25 -95t-67 -71h18l432 -1440h-188l-119 422h-500l-121 -422h-174zM391 563h418l-207 729zM498 1606q0 -45 27.5 -77t70.5 -32t70.5 32t27.5 77t-27.5 76.5t-70.5 31.5t-70.5 -31.5 t-27.5 -76.5z" />
<glyph unicode="&#xc6;" horiz-adv-x="1824" d="M16 0l793 1440h899v-148h-645v-463h500v-145h-500v-537h682v-147h-862v389h-469l-207 -389h-191zM489 530h394v738z" />
<glyph unicode="&#xc7;" horiz-adv-x="1224" d="M127 721q0 338 151 538.5t422 200.5q260 0 418 -186l-108 -115q-70 74 -143.5 110t-166.5 36q-191 0 -286 -155t-95 -439q0 -276 95.5 -423t287.5 -147q104 0 180.5 43t151.5 125l111 -110q-171 -215 -445 -215l-32 -72q60 -8 99.5 -44t39.5 -97q0 -73 -50.5 -111.5 t-133.5 -38.5q-80 0 -140 33l29 80q58 -21 92 -21q78 0 78 58q0 65 -135 65l63 154q-228 34 -355.5 227.5t-127.5 503.5z" />
<glyph unicode="&#xc8;" horiz-adv-x="1128" d="M186 0v1440h826v-148h-645v-463h501v-145h-501v-537h682v-147h-863zM358 1808h228l106 -268h-135z" />
<glyph unicode="&#xc9;" horiz-adv-x="1128" d="M186 0v1440h826v-148h-645v-463h501v-145h-501v-537h682v-147h-863zM535 1540l106 268h227l-198 -268h-135z" />
<glyph unicode="&#xca;" horiz-adv-x="1128" d="M186 0v1440h826v-148h-645v-463h501v-145h-501v-537h682v-147h-863zM326 1540l188 272h178l185 -272h-142l-135 152l-133 -152h-141z" />
<glyph unicode="&#xcb;" horiz-adv-x="1128" d="M186 0v1440h826v-148h-645v-463h501v-145h-501v-537h682v-147h-863zM315 1679q0 42 32 74.5t77 32.5t75.5 -31.5t30.5 -75.5q0 -45 -30.5 -75.5t-75.5 -30.5t-77 31.5t-32 74.5zM672 1679q0 42 30.5 74.5t75.5 32.5t76 -32t31 -75q0 -45 -30.5 -75.5t-76.5 -30.5 q-45 0 -75.5 31.5t-30.5 74.5z" />
<glyph unicode="&#xcc;" horiz-adv-x="577" d="M25 1808h227l106 -268h-135zM199 0v1440h180v-1440h-180z" />
<glyph unicode="&#xcd;" horiz-adv-x="577" d="M199 0v1440h180v-1440h-180zM219 1540l107 268h227l-199 -268h-135z" />
<glyph unicode="&#xce;" horiz-adv-x="581" d="M14 1540l189 272h178l184 -272h-141l-135 152l-133 -152h-142zM201 0v1440h180v-1440h-180z" />
<glyph unicode="&#xcf;" horiz-adv-x="579" d="M4 1679q0 42 32 74.5t77 32.5t75.5 -31.5t30.5 -75.5q0 -45 -30.5 -75.5t-75.5 -30.5t-77 31.5t-32 74.5zM201 0v1440h180v-1440h-180zM360 1679q0 42 31 74.5t76 32.5t75.5 -31.5t30.5 -75.5q0 -45 -30.5 -75.5t-75.5 -30.5t-76 31.5t-31 74.5z" />
<glyph unicode="&#xd0;" horiz-adv-x="1347" d="M49 666v147h158v627h328q690 0 690 -713q0 -361 -171.5 -544t-510.5 -183h-336v666h-158zM387 147h133q144 0 243 35t158.5 109t86 179.5t26.5 256.5q0 136 -22.5 235t-76 176t-148 115.5t-232.5 38.5h-168v-479h375v-147h-375v-519z" />
<glyph unicode="&#xd1;" horiz-adv-x="1372" d="M186 0v1440h213l484 -891q76 -143 137 -287q-8 118 -8 369v809h170v-1440h-183l-524 967q-62 119 -127 268q8 -188 8 -369v-866h-170zM416 1556q3 96 51.5 165t124.5 69q47 0 90.5 -21t76.5 -42t54 -21q59 0 74 82h108q-3 -95 -50.5 -162t-123.5 -67q-37 0 -72.5 13.5 t-57.5 29.5t-46.5 29.5t-42.5 13.5q-53 0 -74 -89h-112z" />
<glyph unicode="&#xd2;" horiz-adv-x="1366" d="M123 721q0 338 149.5 538.5t409.5 200.5q262 0 411.5 -196t149.5 -533q0 -345 -152 -546t-411 -201t-408 195.5t-149 541.5zM311 715q0 -282 93.5 -432t275.5 -150t277.5 154t95.5 440q0 281 -93 432.5t-276 151.5q-184 0 -278.5 -155.5t-94.5 -440.5zM416 1808h227 l107 -268h-136z" />
<glyph unicode="&#xd3;" horiz-adv-x="1366" d="M123 721q0 338 149.5 538.5t409.5 200.5q262 0 411.5 -196t149.5 -533q0 -345 -152 -546t-411 -201t-408 195.5t-149 541.5zM311 715q0 -282 93.5 -432t275.5 -150t277.5 154t95.5 440q0 281 -93 432.5t-276 151.5q-184 0 -278.5 -155.5t-94.5 -440.5zM614 1540l107 268 h227l-198 -268h-136z" />
<glyph unicode="&#xd4;" horiz-adv-x="1366" d="M123 721q0 338 149.5 538.5t409.5 200.5q262 0 411.5 -196t149.5 -533q0 -345 -152 -546t-411 -201t-408 195.5t-149 541.5zM311 715q0 -282 93.5 -432t275.5 -150t277.5 154t95.5 440q0 281 -93 432.5t-276 151.5q-184 0 -278.5 -155.5t-94.5 -440.5zM406 1540l188 272 h178l184 -272h-141l-135 152l-133 -152h-141z" />
<glyph unicode="&#xd5;" horiz-adv-x="1366" d="M123 721q0 338 149.5 538.5t409.5 200.5q262 0 411.5 -196t149.5 -533q0 -345 -152 -546t-411 -201t-408 195.5t-149 541.5zM311 715q0 -282 93.5 -432t275.5 -150t277.5 154t95.5 440q0 281 -93 432.5t-276 151.5q-184 0 -278.5 -155.5t-94.5 -440.5zM391 1556 q3 96 51.5 165t124.5 69q47 0 90.5 -21t76.5 -42t54 -21q59 0 74 82h109q-3 -95 -50.5 -162t-123.5 -67q-37 0 -72.5 13.5t-57.5 29.5t-46.5 29.5t-42.5 13.5q-53 0 -74 -89h-113z" />
<glyph unicode="&#xd6;" horiz-adv-x="1366" d="M123 721q0 338 149.5 538.5t409.5 200.5q262 0 411.5 -196t149.5 -533q0 -345 -152 -546t-411 -201t-408 195.5t-149 541.5zM311 715q0 -282 93.5 -432t275.5 -150t277.5 154t95.5 440q0 281 -93 432.5t-276 151.5q-184 0 -278.5 -155.5t-94.5 -440.5zM395 1679 q0 42 32 74.5t77 32.5t75.5 -31.5t30.5 -75.5q0 -45 -30.5 -75.5t-75.5 -30.5t-77 31.5t-32 74.5zM752 1679q0 42 30.5 74.5t75.5 32.5t76 -32t31 -75q0 -45 -30.5 -75.5t-76.5 -30.5q-45 0 -75.5 31.5t-30.5 74.5z" />
<glyph unicode="&#xd7;" horiz-adv-x="1228" d="M182 238l332 360l-332 363l103 100q327 -354 327 -356l328 356l107 -100q-334 -361 -336 -361l336 -362l-107 -101l-328 355q1 1 -81 -88l-164 -178l-82 -89z" />
<glyph unicode="&#xd8;" horiz-adv-x="1363" d="M82 4l158 223q-117 189 -117 494q0 338 149.5 538.5t409.5 200.5q202 0 342 -121l121 170l104 -73q-137 -195 -137 -197q131 -190 131 -508q0 -345 -152 -546t-411 -201q-217 0 -361 141q1 0 -33 -48.5t-68 -97.5l-34 -49zM311 715q0 -194 43 -324l574 813 q-92 109 -244 109q-184 0 -278.5 -156.5t-94.5 -441.5zM418 262q96 -131 262 -131q182 0 277.5 155t95.5 441q0 209 -54 354z" />
<glyph unicode="&#xd9;" horiz-adv-x="1325" d="M178 557v883h180v-922q0 -95 13 -161.5t46 -119t94 -78.5t151 -26t150.5 26t94 78.5t47 119.5t13.5 161v922h180v-883q0 -135 -23.5 -235.5t-78 -179t-151 -118.5t-235.5 -40q-109 0 -191.5 27t-137 75t-89 121t-49 158t-14.5 192zM408 1808h227l106 -268h-135z" />
<glyph unicode="&#xda;" horiz-adv-x="1325" d="M178 557v883h180v-922q0 -95 13 -161.5t46 -119t94 -78.5t151 -26t150.5 26t94 78.5t47 119.5t13.5 161v922h180v-883q0 -135 -23.5 -235.5t-78 -179t-151 -118.5t-235.5 -40q-109 0 -191.5 27t-137 75t-89 121t-49 158t-14.5 192zM582 1540l106 268h227l-198 -268h-135z " />
<glyph unicode="&#xdb;" horiz-adv-x="1325" d="M178 557v883h180v-922q0 -95 13 -161.5t46 -119t94 -78.5t151 -26t150.5 26t94 78.5t47 119.5t13.5 161v922h180v-883q0 -135 -23.5 -235.5t-78 -179t-151 -118.5t-235.5 -40q-109 0 -191.5 27t-137 75t-89 121t-49 158t-14.5 192zM385 1540l188 272h179l184 -272h-141 l-136 152l-133 -152h-141z" />
<glyph unicode="&#xdc;" horiz-adv-x="1325" d="M178 557v883h180v-922q0 -95 13 -161.5t46 -119t94 -78.5t151 -26t150.5 26t94 78.5t47 119.5t13.5 161v922h180v-883q0 -135 -23.5 -235.5t-78 -179t-151 -118.5t-235.5 -40q-109 0 -191.5 27t-137 75t-89 121t-49 158t-14.5 192zM375 1679q0 42 31.5 74.5t76.5 32.5 t76 -32t31 -75q0 -45 -31 -75.5t-76 -30.5t-76.5 31.5t-31.5 74.5zM731 1679q0 42 31 74.5t76 32.5t75.5 -31.5t30.5 -75.5q0 -45 -30.5 -75.5t-75.5 -30.5t-76 31.5t-31 74.5z" />
<glyph unicode="&#xdd;" horiz-adv-x="1103" d="M33 1440h198l328 -672l332 672h184l-434 -832v-608h-180v608zM489 1540l107 268h227l-198 -268h-136z" />
<glyph unicode="&#xde;" horiz-adv-x="1169" d="M186 0v1440h181v-269h215q503 0 503 -405q0 -111 -38.5 -192.5t-107.5 -127.5t-154.5 -68t-190.5 -22h-227v-356h-181zM367 498h202q167 0 249.5 59.5t82.5 210.5q0 76 -22.5 127.5t-67.5 79.5t-100 39.5t-131 11.5h-213v-528z" />
<glyph unicode="&#xdf;" horiz-adv-x="1136" d="M174 0v1079q0 169 101.5 275t281.5 106q160 0 260.5 -85.5t100.5 -215.5q0 -63 -21 -118t-51 -93.5t-59.5 -71.5t-50.5 -64t-21 -58q0 -35 36 -71t87 -72t102 -78.5t87 -106t36 -137.5q0 -143 -95 -224t-253 -81q-144 0 -246 57l43 125q95 -43 188 -43q183 0 183 162 q0 51 -34.5 96t-83.5 80.5t-98 73t-83.5 89t-34.5 111.5q0 50 20 93.5t48.5 76.5t57 67t48.5 82t20 105q0 72 -50.5 118t-133.5 46q-102 0 -153.5 -63t-51.5 -181v-1079h-180z" />
<glyph unicode="&#xe0;" horiz-adv-x="1050" d="M106 268q0 166 138 250q128 79 467 129v47q0 109 -42.5 159t-150.5 50q-117 0 -293 -90l-65 121q182 117 372 117q359 0 359 -369v-682h-105l-47 123q-60 -60 -142 -99.5t-175 -39.5q-137 0 -226.5 78.5t-89.5 205.5zM270 1440h228l106 -269h-135zM289 281 q0 -158 160 -158q125 0 262 102v305q-321 -61 -389 -145q-33 -38 -33 -104z" />
<glyph unicode="&#xe1;" horiz-adv-x="1050" d="M106 268q0 166 138 250q128 79 467 129v47q0 109 -42.5 159t-150.5 50q-117 0 -293 -90l-65 121q182 117 372 117q359 0 359 -369v-682h-105l-47 123q-60 -60 -142 -99.5t-175 -39.5q-137 0 -226.5 78.5t-89.5 205.5zM289 281q0 -158 160 -158q125 0 262 102v305 q-321 -61 -389 -145q-33 -38 -33 -104zM465 1171l106 269h228l-199 -269h-135z" />
<glyph unicode="&#xe2;" horiz-adv-x="1050" d="M106 268q0 166 138 250q128 79 467 129v47q0 109 -42.5 159t-150.5 50q-117 0 -293 -90l-65 121q182 117 372 117q359 0 359 -369v-682h-105l-47 123q-60 -60 -142 -99.5t-175 -39.5q-137 0 -226.5 78.5t-89.5 205.5zM256 1171l188 273h179l184 -273h-141l-136 152 l-133 -152h-141zM289 281q0 -158 160 -158q125 0 262 102v305q-321 -61 -389 -145q-33 -38 -33 -104z" />
<glyph unicode="&#xe3;" horiz-adv-x="1050" d="M106 268q0 166 138 250q128 79 467 129v47q0 109 -42.5 159t-150.5 50q-117 0 -293 -90l-65 121q182 117 372 117q359 0 359 -369v-682h-105l-47 123q-60 -60 -142 -99.5t-175 -39.5q-137 0 -226.5 78.5t-89.5 205.5zM233 1188q3 95 52 164t125 69q47 0 90.5 -21 t76.5 -42t54 -21q59 0 74 82h108q-3 -95 -50.5 -162t-123.5 -67q-37 0 -72.5 13.5t-57.5 29.5t-46.5 29.5t-42.5 13.5q-30 0 -47 -23t-27 -65h-113zM289 281q0 -158 160 -158q125 0 262 102v305q-321 -61 -389 -145q-33 -38 -33 -104z" />
<glyph unicode="&#xe4;" horiz-adv-x="1050" d="M106 268q0 166 138 250q128 79 467 129v47q0 109 -42.5 159t-150.5 50q-117 0 -293 -90l-65 121q182 117 372 117q359 0 359 -369v-682h-105l-47 123q-60 -60 -142 -99.5t-175 -39.5q-137 0 -226.5 78.5t-89.5 205.5zM246 1311q0 42 31.5 74t76.5 32t76 -31.5t31 -74.5 q0 -45 -31 -76t-76 -31t-76.5 32t-31.5 75zM289 281q0 -158 160 -158q125 0 262 102v305q-321 -61 -389 -145q-33 -38 -33 -104zM602 1311q0 42 31 74t76 32t75.5 -31.5t30.5 -74.5q0 -45 -30.5 -76t-75.5 -31t-76 32t-31 75z" />
<glyph unicode="&#xe5;" horiz-adv-x="1050" d="M106 268q0 166 138 250q128 79 467 129v47q0 109 -42.5 159t-150.5 50q-117 0 -293 -90l-65 121q182 117 372 117q359 0 359 -369v-682h-105l-47 123q-60 -60 -142 -99.5t-175 -39.5q-137 0 -226.5 78.5t-89.5 205.5zM289 281q0 -158 160 -158q125 0 262 102v305 q-321 -61 -389 -145q-33 -38 -33 -104zM322 1346q0 82 59 140t143 58q85 0 144 -58t59 -140q0 -83 -59 -141t-144 -58t-143.5 58t-58.5 141zM426 1346q0 -45 27.5 -77t70.5 -32t71 32t28 77t-28 76.5t-71 31.5t-70.5 -31.5t-27.5 -76.5z" />
<glyph unicode="&#xe6;" horiz-adv-x="1630" d="M106 266q0 165 138 252q122 77 467 94v82q0 109 -42.5 159t-150.5 50q-117 0 -293 -90l-65 121q182 117 372 117q219 0 295 -140q115 140 297 140q198 0 304 -141.5t106 -401.5v-21h-641q5 -181 67.5 -270.5t194.5 -89.5q81 0 141 24.5t140 75.5l73 -108 q-82 -69 -163 -102t-205 -33q-224 0 -346 180q-66 -79 -163.5 -129.5t-209.5 -50.5q-137 0 -226.5 77.5t-89.5 204.5zM289 279q0 -156 160 -156q149 0 299 133q-40 109 -43 233q-158 -11 -252 -35t-131 -69q-33 -38 -33 -106zM897 608h453q-11 154 -65 230.5t-159 76.5 q-203 0 -229 -307z" />
<glyph unicode="&#xe7;" horiz-adv-x="948" d="M100 508q0 82 14.5 158t47.5 147t82.5 123t124 83.5t166.5 31.5q192 0 321 -109l-78 -121q-113 84 -241 84q-248 0 -248 -397q0 -379 254 -379q73 0 130 25t115 73l86 -106q-126 -129 -319 -137l-33 -72q60 -8 100 -44t40 -97q0 -73 -51 -111.5t-134 -38.5q-79 0 -139 33 l29 80q58 -21 92 -21q78 0 78 58q0 65 -136 65l64 152q-95 13 -167 62.5t-114 123t-63 157.5t-21 177z" />
<glyph unicode="&#xe8;" horiz-adv-x="1028" d="M100 514q0 240 115 388.5t307 148.5q198 0 303 -141.5t105 -401.5v-43h-639q6 -169 69 -253.5t191 -84.5q56 0 108.5 15t85.5 33t86 52l76 -108q-84 -69 -165 -102t-205 -33q-200 0 -318.5 143t-118.5 387zM258 1440h227l107 -269h-135zM291 586h454q-9 329 -223 329 q-211 0 -231 -329z" />
<glyph unicode="&#xe9;" horiz-adv-x="1028" d="M100 514q0 240 115 388.5t307 148.5q198 0 303 -141.5t105 -401.5v-43h-639q6 -169 69 -253.5t191 -84.5q56 0 108.5 15t85.5 33t86 52l76 -108q-84 -69 -165 -102t-205 -33q-200 0 -318.5 143t-118.5 387zM291 586h454q-9 329 -223 329q-211 0 -231 -329zM463 1171 l106 269h228l-199 -269h-135z" />
<glyph unicode="&#xea;" horiz-adv-x="1028" d="M100 514q0 240 115 388.5t307 148.5q198 0 303 -141.5t105 -401.5v-43h-639q6 -169 69 -253.5t191 -84.5q56 0 108.5 15t85.5 33t86 52l76 -108q-84 -69 -165 -102t-205 -33q-200 0 -318.5 143t-118.5 387zM246 1171l188 273h178l185 -273h-142l-135 152l-133 -152h-141z M291 586h454q-9 329 -223 329q-211 0 -231 -329z" />
<glyph unicode="&#xeb;" horiz-adv-x="1028" d="M100 514q0 240 115 388.5t307 148.5q198 0 303 -141.5t105 -401.5v-43h-639q6 -169 69 -253.5t191 -84.5q56 0 108.5 15t85.5 33t86 52l76 -108q-84 -69 -165 -102t-205 -33q-200 0 -318.5 143t-118.5 387zM233 1311q0 42 32 74t77 32t76 -31.5t31 -74.5q0 -45 -31 -76 t-76 -31t-77 32t-32 75zM291 586h454q-9 329 -223 329q-211 0 -231 -329zM590 1311q0 42 30.5 74t75.5 32t76 -31.5t31 -74.5q0 -45 -31 -76t-76 -31t-75.5 31.5t-30.5 75.5z" />
<glyph unicode="&#xec;" horiz-adv-x="540" d="M2 1440h227l107 -269h-135zM182 0v1030h176v-1030h-176z" />
<glyph unicode="&#xed;" horiz-adv-x="538" d="M182 0v1024h176v-1024h-176zM205 1171l106 269h228l-199 -269h-135z" />
<glyph unicode="&#xee;" horiz-adv-x="540" d="M-6 1171l188 273h178l185 -273h-142l-135 152l-133 -152h-141zM182 0v1030h176v-1030h-176z" />
<glyph unicode="&#xef;" horiz-adv-x="538" d="M-16 1311q0 42 31.5 74t76.5 32t76 -31.5t31 -74.5q0 -45 -31 -76t-76 -31t-76.5 32t-31.5 75zM182 0v1024h176v-1024h-176zM340 1311q0 42 30.5 74t75.5 32t76 -31.5t31 -74.5q0 -45 -31 -76t-76 -31t-75.5 31.5t-30.5 75.5z" />
<glyph unicode="&#xf0;" horiz-adv-x="1083" d="M100 487q0 228 112.5 370t295.5 142q119 0 201 -69q-55 118 -160 248l-232 -97l-47 109l195 80q-66 73 -182 170h200q73 -44 138 -107l237 99l47 -107q-194 -80 -194 -82q120 -138 196 -313.5t76 -380.5q0 -285 -114 -425t-324 -140q-204 0 -324.5 137t-120.5 366z M291 487q0 -173 62.5 -269.5t189.5 -96.5q58 0 102 19t72 52t45 83.5t24 106.5t7 128q0 174 -60.5 264t-191.5 90q-125 0 -187.5 -99t-62.5 -278z" />
<glyph unicode="&#xf1;" horiz-adv-x="1136" d="M174 0v1030h107l45 -170q169 191 368 191q80 0 137.5 -29.5t87.5 -81t43 -109t13 -126.5v-705h-180v705q0 42 -6.5 73t-22.5 59.5t-49 44t-82 15.5q-141 0 -281 -147v-750h-180zM281 1188q3 95 51.5 164t124.5 69q47 0 90.5 -21t76.5 -42t54 -21q59 0 74 82h108 q-3 -95 -50.5 -162t-123.5 -67q-37 0 -72.5 13.5t-57.5 29.5t-46.5 29.5t-42.5 13.5q-30 0 -47 -23t-27 -65h-112z" />
<glyph unicode="&#xf2;" horiz-adv-x="1083" d="M100 508q0 243 122 393t321 150q198 0 319 -143t121 -378q0 -254 -117.5 -400t-322.5 -146q-203 0 -323 141t-120 383zM279 1440h227l106 -269h-135zM291 512q0 -188 62.5 -289.5t189.5 -101.5q71 0 120.5 29t77.5 85.5t40 129.5t12 170q0 378 -252 378 q-125 0 -187.5 -103.5t-62.5 -297.5z" />
<glyph unicode="&#xf3;" horiz-adv-x="1083" d="M100 508q0 243 122 393t321 150q198 0 319 -143t121 -378q0 -254 -117.5 -400t-322.5 -146q-203 0 -323 141t-120 383zM291 512q0 -188 62.5 -289.5t189.5 -101.5q71 0 120.5 29t77.5 85.5t40 129.5t12 170q0 378 -252 378q-125 0 -187.5 -103.5t-62.5 -297.5zM469 1171 l106 269h228l-199 -269h-135z" />
<glyph unicode="&#xf4;" horiz-adv-x="1083" d="M100 508q0 243 122 393t321 150q198 0 319 -143t121 -378q0 -254 -117.5 -400t-322.5 -146q-203 0 -323 141t-120 383zM264 1171l189 273h178l184 -273h-141l-135 152l-133 -152h-142zM291 512q0 -188 62.5 -289.5t189.5 -101.5q71 0 120.5 29t77.5 85.5t40 129.5t12 170 q0 378 -252 378q-125 0 -187.5 -103.5t-62.5 -297.5z" />
<glyph unicode="&#xf5;" horiz-adv-x="1083" d="M100 508q0 243 122 393t321 150q198 0 319 -143t121 -378q0 -254 -117.5 -400t-322.5 -146q-203 0 -323 141t-120 383zM254 1188q3 95 51.5 164t124.5 69q47 0 90.5 -21t76.5 -42t54 -21q59 0 74 82h109q-3 -95 -50.5 -162t-124.5 -67q-37 0 -72.5 13.5t-57.5 29.5 t-46.5 29.5t-42.5 13.5q-30 0 -46.5 -22.5t-26.5 -65.5h-113zM291 512q0 -188 62.5 -289.5t189.5 -101.5q71 0 120.5 29t77.5 85.5t40 129.5t12 170q0 378 -252 378q-125 0 -187.5 -103.5t-62.5 -297.5z" />
<glyph unicode="&#xf6;" horiz-adv-x="1083" d="M100 508q0 243 122 393t321 150q198 0 319 -143t121 -378q0 -254 -117.5 -400t-322.5 -146q-203 0 -323 141t-120 383zM254 1311q0 42 31.5 74t76.5 32t76 -31.5t31 -74.5q0 -45 -31 -76t-76 -31t-76.5 32t-31.5 75zM291 512q0 -188 62.5 -289.5t189.5 -101.5 q71 0 120.5 29t77.5 85.5t40 129.5t12 170q0 378 -252 378q-125 0 -187.5 -103.5t-62.5 -297.5zM610 1311q0 42 31 74t76 32t75.5 -31.5t30.5 -74.5q0 -45 -30.5 -76t-75.5 -31t-76 32t-31 75z" />
<glyph unicode="&#xf7;" horiz-adv-x="1228" d="M129 526v148h971v-148h-971zM500 264q0 51 32.5 85t81.5 34t82 -34t33 -85q0 -47 -33 -78.5t-82 -31.5t-81.5 31.5t-32.5 78.5zM500 928q0 50 32.5 83t81.5 33t82 -33t33 -83q0 -48 -33 -80.5t-82 -32.5t-81.5 32.5t-32.5 80.5z" />
<glyph unicode="&#xf8;" horiz-adv-x="1077" d="M90 -27q7 10 19.5 27t38 53t42 60t15.5 24q-109 140 -109 371q0 243 122 393t321 150q148 0 256 -82l90 125l92 -66l-100 -141q102 -139 102 -357q0 -254 -117.5 -400t-322.5 -146q-145 0 -252 75l-107 -151zM285 512q0 -130 30 -221q25 35 65.5 92t126.5 178t143 201.5 t57 79.5q-60 73 -170 73q-125 0 -188.5 -104.5t-63.5 -298.5zM377 184q59 -65 162 -65q64 0 111 25.5t73 64t41 97t19.5 110.5t4.5 119q0 115 -24 194z" />
<glyph unicode="&#xf9;" horiz-adv-x="1136" d="M162 326v704h180v-702q0 -42 7 -74t24 -60.5t50.5 -43.5t82.5 -15q133 0 276 133v762h181v-1030h-107l-47 158q-170 -174 -360 -174q-81 0 -139 28.5t-89 79.5t-45 108.5t-14 125.5zM309 1440h228l106 -269h-135z" />
<glyph unicode="&#xfa;" horiz-adv-x="1136" d="M162 326v704h180v-702q0 -42 7 -74t24 -60.5t50.5 -43.5t82.5 -15q133 0 276 133v762h181v-1030h-107l-47 158q-170 -174 -360 -174q-81 0 -139 28.5t-89 79.5t-45 108.5t-14 125.5zM494 1171l106 269h227l-198 -269h-135z" />
<glyph unicode="&#xfb;" horiz-adv-x="1136" d="M162 326v704h180v-702q0 -42 7 -74t24 -60.5t50.5 -43.5t82.5 -15q133 0 276 133v762h181v-1030h-107l-47 158q-170 -174 -360 -174q-81 0 -139 28.5t-89 79.5t-45 108.5t-14 125.5zM291 1171l188 273h178l185 -273h-142l-135 152l-133 -152h-141z" />
<glyph unicode="&#xfc;" horiz-adv-x="1136" d="M162 326v704h180v-702q0 -42 7 -74t24 -60.5t50.5 -43.5t82.5 -15q133 0 276 133v762h181v-1030h-107l-47 158q-170 -174 -360 -174q-81 0 -139 28.5t-89 79.5t-45 108.5t-14 125.5zM281 1311q0 42 31.5 74t76.5 32t76 -31.5t31 -74.5q0 -45 -31 -76t-76 -31t-76.5 32 t-31.5 75zM637 1311q0 42 30.5 74t75.5 32t76 -31.5t31 -74.5q0 -45 -31 -76t-76 -31t-75.5 31.5t-30.5 75.5z" />
<glyph unicode="&#xfd;" horiz-adv-x="964" d="M51 1030h185q258 -868 258 -870l241 870h178l-346 -1108q-46 -149 -131 -223t-229 -74q-60 0 -125 19l22 131q74 -11 86 -11q171 0 228 177zM418 1171l106 269h228l-199 -269h-135z" />
<glyph unicode="&#xfe;" horiz-adv-x="1130" d="M172 -365v1805h180v-525q129 136 283 136q99 0 177 -46t124 -121.5t70 -164.5t24 -184q0 -246 -116.5 -398.5t-305.5 -152.5q-87 0 -145.5 27t-110.5 79v-455h-180zM352 231q52 -56 102 -82t117 -26q129 0 198 107.5t69 304.5q0 54 -7 103t-24.5 97.5t-44.5 84t-70 57.5 t-98 22q-131 0 -242 -117v-551z" />
<glyph unicode="&#xff;" horiz-adv-x="964" d="M51 1030h185q258 -868 258 -870l241 870h178l-346 -1108q-46 -149 -131 -223t-229 -74q-60 0 -125 19l22 131q74 -11 86 -11q171 0 228 177zM197 1311q0 42 31.5 74t76.5 32t76 -31.5t31 -74.5q0 -45 -31 -76t-76 -31t-76.5 32t-31.5 75zM553 1311q0 42 30.5 74t75.5 32 t76 -31.5t31 -74.5q0 -45 -31 -76t-76 -31t-75.5 31.5t-30.5 75.5z" />
<glyph unicode="&#x152;" horiz-adv-x="1988" d="M123 721q0 336 148.5 537.5t402.5 201.5q250 0 377 -194v174h821v-148h-645v-463h502v-145h-502v-537h682v-147h-858v188q-128 -204 -379 -204q-254 0 -401.5 196t-147.5 541zM311 715q0 -282 93.5 -432t275.5 -150t277.5 154t95.5 440q0 281 -93 432.5t-276 151.5 q-184 0 -278.5 -155.5t-94.5 -440.5z" />
<glyph unicode="&#x153;" horiz-adv-x="1720" d="M100 508q0 243 122 393t321 150q235 0 346 -201q106 201 325 201q198 0 304 -141.5t106 -401.5v-43h-639q6 -169 68.5 -253.5t191.5 -84.5q81 0 141 24.5t140 75.5l73 -108q-82 -69 -163 -102t-205 -33q-236 0 -342 198q-109 -198 -346 -198q-203 0 -323 141t-120 383z M289 512q0 -188 63 -289.5t191 -101.5q54 0 95.5 16.5t68 48t44 68.5t26 87.5t11.5 94.5t3 99q0 378 -250 378q-126 0 -189 -103.5t-63 -297.5zM985 586h455q-12 329 -223 329q-101 0 -161.5 -81t-70.5 -248z" />
<glyph unicode="&#x178;" horiz-adv-x="1103" d="M33 1440h198l328 -672l332 672h184l-434 -832v-608h-180v608zM264 1679q0 42 32 74.5t77 32.5t75.5 -31.5t30.5 -75.5q0 -45 -30.5 -75.5t-75.5 -30.5t-77 31.5t-32 74.5zM621 1679q0 42 30.5 74.5t75.5 32.5t76 -32t31 -75q0 -45 -31 -75.5t-76 -30.5t-75.5 31.5 t-30.5 74.5z" />
<glyph unicode="&#x2c6;" horiz-adv-x="614" d="M31 1171l188 273h178l185 -273h-142l-135 152l-133 -152h-141z" />
<glyph unicode="&#x2dc;" horiz-adv-x="614" d="M20 1188q3 95 52 164t125 69q47 0 90.5 -21t76.5 -42t54 -21q59 0 74 82h108q-3 -95 -50.5 -162t-123.5 -67q-37 0 -72.5 13.5t-57.5 29.5t-46.5 29.5t-42.5 13.5q-30 0 -47 -23t-27 -65h-113z" />
<glyph unicode="&#x2000;" horiz-adv-x="906" />
<glyph unicode="&#x2001;" horiz-adv-x="1812" />
<glyph unicode="&#x2002;" horiz-adv-x="906" />
<glyph unicode="&#x2003;" horiz-adv-x="1812" />
<glyph unicode="&#x2004;" horiz-adv-x="604" />
<glyph unicode="&#x2005;" horiz-adv-x="453" />
<glyph unicode="&#x2006;" horiz-adv-x="302" />
<glyph unicode="&#x2007;" horiz-adv-x="302" />
<glyph unicode="&#x2008;" horiz-adv-x="226" />
<glyph unicode="&#x2009;" horiz-adv-x="362" />
<glyph unicode="&#x200a;" horiz-adv-x="100" />
<glyph unicode="&#x2010;" horiz-adv-x="690" d="M127 500v151h436v-151h-436z" />
<glyph unicode="&#x2011;" horiz-adv-x="690" d="M127 500v151h436v-151h-436z" />
<glyph unicode="&#x2012;" horiz-adv-x="690" d="M127 500v151h436v-151h-436z" />
<glyph unicode="&#x2013;" horiz-adv-x="1167" d="M127 506v141h913v-141h-913z" />
<glyph unicode="&#x2014;" horiz-adv-x="1990" d="M127 506v141h1737v-141h-1737z" />
<glyph unicode="&#x2018;" horiz-adv-x="512" d="M135 1124q0 104 51 191t142 147l51 -61q-103 -100 -103 -197q40 0 71.5 -31t31.5 -79q0 -51 -33 -86t-80 -35q-55 0 -93 40t-38 111z" />
<glyph unicode="&#x2019;" horiz-adv-x="514" d="M133 1032q103 96 103 197q-40 0 -70.5 31t-30.5 79q0 51 33 86t80 35q55 0 93 -40t38 -111q0 -103 -51.5 -190.5t-141.5 -147.5z" />
<glyph unicode="&#x201a;" horiz-adv-x="514" d="M133 -199q103 96 103 197q-40 0 -70.5 31.5t-30.5 79.5q0 51 33 85.5t80 34.5q55 0 93 -40.5t38 -112.5q0 -103 -51.5 -190.5t-141.5 -145.5z" />
<glyph unicode="&#x201c;" horiz-adv-x="862" d="M135 1124q0 104 51 191t142 147l51 -61q-103 -100 -103 -197q40 0 71.5 -31t31.5 -79q0 -51 -33 -86t-80 -35q-55 0 -93 40t-38 111zM483 1124q0 103 51.5 190.5t141.5 147.5l53 -61q-102 -95 -102 -197q40 0 70 -31t30 -79q0 -51 -33 -86t-80 -35q-55 0 -93 40t-38 111z " />
<glyph unicode="&#x201d;" horiz-adv-x="862" d="M133 1032q103 96 103 197q-40 0 -70.5 31t-30.5 79q0 51 33 86t80 35q55 0 93 -40t38 -111q0 -103 -51.5 -190.5t-141.5 -147.5zM483 1032q103 100 103 197q-40 0 -71.5 31t-31.5 79q0 51 33 86t80 35q55 0 93 -40t38 -111q0 -104 -50.5 -191t-141.5 -147z" />
<glyph unicode="&#x201e;" horiz-adv-x="862" d="M133 -199q103 96 103 197q-40 0 -70.5 31.5t-30.5 79.5q0 51 33 85.5t80 34.5q55 0 93 -40.5t38 -112.5q0 -103 -51.5 -190.5t-141.5 -145.5zM483 109q0 51 33 85.5t80 34.5q55 0 93 -40.5t38 -112.5q0 -104 -50.5 -191t-141.5 -145l-52 61q103 100 103 197 q-40 0 -71.5 31.5t-31.5 79.5z" />
<glyph unicode="&#x2022;" horiz-adv-x="929" d="M170 668q0 125 84 209t211 84t211 -84t84 -209q0 -126 -84.5 -212.5t-210.5 -86.5t-210.5 86.5t-84.5 212.5z" />
<glyph unicode="&#x2026;" horiz-adv-x="1826" d="M145 106q0 53 34.5 89t86.5 36t87.5 -36t35.5 -89q0 -51 -35 -84.5t-88 -33.5q-52 0 -86.5 33.5t-34.5 84.5zM791 106q0 53 35 89t87 36q51 0 86 -36t35 -89q0 -51 -35 -84.5t-86 -33.5q-53 0 -87.5 33.5t-34.5 84.5zM1436 106q0 53 35.5 89t87.5 36q51 0 86.5 -36.5 t35.5 -88.5q0 -51 -35.5 -84.5t-86.5 -33.5q-53 0 -88 33.5t-35 84.5z" />
<glyph unicode="&#x202f;" horiz-adv-x="362" />
<glyph unicode="&#x2039;" horiz-adv-x="620" d="M86 498l254 438h166l-250 -436l268 -420h-170z" />
<glyph unicode="&#x203a;" horiz-adv-x="618" d="M96 936h170l266 -418l-251 -438h-164l248 436z" />
<glyph unicode="&#x205f;" horiz-adv-x="453" />
<glyph unicode="&#x20ac;" d="M55 471v125h142q-4 70 -4 106q0 53 2 80h-140v127h154q39 242 168.5 377t331.5 135q104 0 179.5 -30.5t149.5 -104.5l-96 -119q-65 58 -116 79.5t-121 21.5q-133 0 -208 -90.5t-100 -268.5h428l-32 -127h-406q-2 -29 -2 -90q0 -65 2 -96h358l-30 -125h-316 q53 -334 301 -334q84 0 138 28.5t123 94.5l100 -108q-74 -85 -158 -126.5t-207 -41.5q-193 0 -318.5 126.5t-166.5 360.5h-156z" />
<glyph unicode="&#x2122;" horiz-adv-x="1308" d="M92 1346v94h416v-94h-148v-482h-118v482h-150zM623 864v576h178l114 -420l109 420h178v-576h-117v441l-122 -441h-107l-121 441v-441h-112z" />
<glyph unicode="&#xe000;" horiz-adv-x="1034" d="M0 0v1034h1034v-1034h-1034z" />
<glyph unicode="&#xfb01;" horiz-adv-x="1191" d="M80 903v127h145v113q0 154 72 238.5t219 84.5q76 0 146 -12l-17 -143q-67 10 -110 10q-69 0 -99 -43t-30 -135v-113h219v-127h-219v-903h-181v903h-145zM805 1315q0 46 34 79t83 33t81.5 -33t32.5 -79q0 -48 -32.5 -80.5t-81.5 -32.5t-83 33.5t-34 79.5zM831 0v1030h181 v-1030h-181z" />
<glyph unicode="&#xfb02;" horiz-adv-x="1193" d="M80 903v127h145v113q0 154 72 238.5t219 84.5q76 0 146 -12l-17 -143q-67 10 -110 10q-69 0 -99 -43t-30 -135v-113h219v-127h-219v-903h-181v903h-145zM831 0v1440h181v-1440h-181z" />
</font>
</defs>
</svg>
