<?xml version="1.0" standalone="no"?>
<!DOCTYPE svg PUBLIC "-//W3C//DTD SVG 1.1//EN" "http://www.w3.org/Graphics/SVG/1.1/DTD/svg11.dtd" >
<svg xmlns="http://www.w3.org/2000/svg">
<metadata></metadata>
<defs>
<font id="symantec_sansbold" horiz-adv-x="1150" >
<font-face units-per-em="2048" ascent="1638" descent="-410" />
<missing-glyph horiz-adv-x="481" />
<glyph horiz-adv-x="0" />
<glyph horiz-adv-x="0" />
<glyph horiz-adv-x="682" />
<glyph unicode="&#xd;" horiz-adv-x="481" />
<glyph unicode=" "  horiz-adv-x="481" />
<glyph unicode="&#x09;" horiz-adv-x="481" />
<glyph unicode="&#xa0;" horiz-adv-x="481" />
<glyph unicode="!" horiz-adv-x="667" d="M156 164q0 77 51 129.5t127 52.5q74 0 126 -53t52 -129q0 -74 -52.5 -127t-125.5 -53q-76 0 -127 53t-51 127zM166 1440h338l-45 -948h-246z" />
<glyph unicode="&#x22;" horiz-adv-x="827" d="M94 1440h268l-24 -508h-219zM465 1440h268l-24 -508h-220z" />
<glyph unicode="#" d="M68 356v234h206l23 217h-180v233h205l38 361h181l-39 -361h229l39 361h180l-39 -361h172v-233h-198q1 0 -5 -54.5t-12 -108.5l-6 -54h176v-234h-202l-39 -356h-181l39 356h-227q1 0 -8.5 -89t-19.5 -178l-9 -89h-180q2 23 6 59.5t12.5 114.5t14 130t4.5 52h-180zM455 590 h227q2 14 4.5 36.5t7.5 70t8.5 79t2.5 31.5h-228z" />
<glyph unicode="$" d="M35 174l166 207q57 -60 144 -101t183 -47v338q-61 20 -107 38.5t-98.5 46t-89.5 61t-69 77t-48 101t-16 125.5q0 182 120.5 287.5t307.5 113.5v154h123v-158q108 -10 194 -48t169 -107l-164 -201q-96 83 -199 102v-323q52 -16 87 -28t84.5 -33.5t82 -43t69 -54.5 t58 -70.5t35.5 -88.5t14 -110q0 -178 -108 -293t-322 -135v-213h-123v209q-162 7 -290 61.5t-203 132.5zM383 1030q0 -55 32 -87t113 -62v286q-145 -15 -145 -137zM651 242q135 23 135 147q0 54 -31.5 85.5t-103.5 57.5v-290z" />
<glyph unicode="%" horiz-adv-x="1882" d="M66 991q0 191 96.5 310.5t269.5 119.5q169 0 268 -117.5t99 -302.5t-104.5 -310.5t-262.5 -125.5q-170 0 -268 120t-98 306zM319 991q0 -135 27 -189t82 -54q56 0 86.5 55.5t30.5 191.5q0 244 -115 244q-55 0 -83 -57.5t-28 -190.5zM485 0l727 1401h185l-727 -1401h-185z M1083 406q0 191 96.5 310.5t270.5 119.5q169 0 268 -117.5t99 -302.5t-104.5 -310.5t-262.5 -125.5q-170 0 -268.5 120t-98.5 306zM1337 406q0 -135 27 -189.5t82 -54.5q56 0 86.5 56t30.5 192q0 130 -29.5 186.5t-85.5 56.5q-55 0 -83 -57t-28 -190z" />
<glyph unicode="&#x26;" horiz-adv-x="1431" d="M74 371q0 147 75.5 246.5t219.5 173.5q-72 162 -72 272q0 189 114.5 295t297.5 106q173 0 268.5 -95t95.5 -243q0 -119 -82 -215.5t-262 -177.5q116 -164 229 -264q59 117 82 260l236 -43q-38 -201 -127 -354q116 -67 225 -99l-80 -256q-173 36 -331 136 q-173 -133 -394 -133q-240 0 -367.5 105t-127.5 286zM375 397q0 -88 55.5 -137t153.5 -49q100 0 182 49q-166 147 -297 350q-94 -77 -94 -213zM584 1085q0 -93 45 -184q98 50 138 105.5t40 126.5q0 110 -100 110q-58 0 -90.5 -41t-32.5 -117z" />
<glyph unicode="'" horiz-adv-x="456" d="M94 1440h268l-24 -508h-219z" />
<glyph unicode="(" horiz-adv-x="643" d="M104 612q0 526 279 910h258q-215 -376 -215 -910q0 -256 52 -472.5t169 -422.5h-258q-131 180 -208 406.5t-77 488.5z" />
<glyph unicode=")" horiz-adv-x="643" d="M-4 1522h258q130 -179 207.5 -410t77.5 -494q0 -283 -73 -500.5t-206 -400.5h-258q215 376 215 901q0 257 -52 478t-169 426z" />
<glyph unicode="*" horiz-adv-x="940" d="M98 1085l60 197l219 -76l-17 234h220l-19 -234l221 76l60 -197l-219 -57l147 -184l-170 -121l-131 205l-131 -205l-170 121l147 184z" />
<glyph unicode="+" horiz-adv-x="1228" d="M125 475v244h362v391h254v-391h363v-244h-363v-391h-254v391h-362z" />
<glyph unicode="," horiz-adv-x="534" d="M92 164q0 77 50.5 129.5t125.5 52.5q81 0 135 -61.5t54 -159.5q0 -267 -262 -442l-82 98q60 49 97.5 107t37.5 100q-60 0 -108 51t-48 125z" />
<glyph unicode="-" horiz-adv-x="743" d="M117 428v260h512v-260h-512z" />
<glyph unicode="." horiz-adv-x="534" d="M92 164q0 77 51 129.5t127 52.5q74 0 126.5 -53t52.5 -129q0 -74 -53 -127t-126 -53q-76 0 -127 53t-51 127z" />
<glyph unicode="/" horiz-adv-x="798" d="M-90 -283l645 1866h260l-645 -1866h-260z" />
<glyph unicode="0" d="M45 717q0 328 140.5 516t392.5 188q249 0 388.5 -183t139.5 -515q0 -170 -32 -305t-96.5 -233.5t-167 -151.5t-237.5 -53q-165 0 -284.5 91.5t-181.5 257.5t-62 388zM367 694q0 -176 25.5 -282t70.5 -148.5t115 -42.5q73 0 117 43.5t66.5 150.5t22.5 290q0 176 -26 282.5 t-70 147.5t-113 41q-73 0 -117.5 -44t-67.5 -150.5t-23 -287.5z" />
<glyph unicode="1" d="M164 1188l387 213h221v-1190h217v-211h-762v211h236v874l-238 -75z" />
<glyph unicode="2" d="M98 1270q201 151 455 151q221 0 344 -118t123 -320q0 -84 -31.5 -165.5t-82 -151t-131 -144t-162 -135.5t-191.5 -135h616v-252h-938v283q355 291 475.5 426t120.5 260q0 180 -176 180q-84 0 -146.5 -22t-146.5 -76z" />
<glyph unicode="3" d="M51 113l135 225q146 -96 324 -96q235 0 235 176q0 97 -66 143.5t-216 46.5h-68v226h66q248 0 248 165q0 81 -51.5 121.5t-139.5 40.5q-153 0 -297 -80l-115 219q106 64 199.5 92.5t222.5 28.5q223 0 355.5 -98.5t132.5 -278.5q0 -117 -69 -193t-185 -110 q133 -24 216 -111t83 -222q0 -205 -142.5 -316.5t-398.5 -111.5q-279 0 -469 133z" />
<glyph unicode="4" d="M41 309v209l483 883h404v-852h180v-240h-188v-309h-289v309h-590zM317 549h314v635z" />
<glyph unicode="5" d="M61 104l117 228q146 -90 311 -90q127 0 196 64.5t69 191.5q0 116 -54 172.5t-147 56.5q-67 0 -116.5 -35t-92.5 -106l-229 82l53 733h803v-246h-568l-22 -293q83 90 242 90q206 0 327 -120.5t121 -337.5q0 -108 -37.5 -201t-108.5 -163t-182.5 -110t-250.5 -40 q-272 0 -431 124z" />
<glyph unicode="6" d="M57 672q0 118 24.5 228t75.5 205t123 165t173.5 110.5t220.5 40.5q121 0 191.5 -16.5t150.5 -56.5l-92 -238q-63 28 -112.5 40.5t-123.5 12.5q-275 0 -307 -389q123 144 295 144q198 0 312 -119.5t114 -317.5q0 -230 -133 -365.5t-357 -135.5q-262 0 -408.5 178.5 t-146.5 513.5zM375 532q0 -145 53 -230t170 -85q99 0 148 65t49 181q0 113 -46 164t-147 51q-143 0 -227 -121v-25z" />
<glyph unicode="7" d="M96 1149v252h973v-176l-559 -1225h-342l551 1149h-623z" />
<glyph unicode="8" d="M51 383q0 116 63 200t212 148q-226 117 -226 305q0 121 65.5 209.5t173.5 131t243 42.5q209 0 340 -101t131 -267q0 -97 -55 -172.5t-177 -135.5q153 -59 216 -140t63 -210q0 -104 -42 -185t-115 -130t-167 -73.5t-203 -24.5q-236 0 -379 105t-143 298zM365 391 q0 -90 58 -140t157 -50q95 0 150.5 50t55.5 136q0 32 -3.5 54t-16.5 49t-36.5 49.5t-65.5 47.5t-103 50q-110 -53 -153 -111.5t-43 -134.5zM406 1034q0 -69 43.5 -120t144.5 -93q91 38 122.5 90.5t31.5 126.5q0 73 -44.5 115.5t-128.5 42.5t-126.5 -43.5t-42.5 -118.5z" />
<glyph unicode="9" d="M55 956q0 209 139.5 337t360.5 128q259 0 394.5 -175.5t135.5 -475.5q0 -133 -20.5 -248.5t-66.5 -216t-114.5 -172t-170.5 -112.5t-230 -41q-230 0 -391 114l115 219q128 -80 268 -80t212.5 95.5t92.5 300.5q-66 -65 -135 -96t-160 -31q-187 0 -308.5 127t-121.5 327z M362 967q0 -110 50 -168t147 -58q129 0 209 115v37q0 124 -53.5 207.5t-159.5 83.5q-92 0 -142.5 -57t-50.5 -160z" />
<glyph unicode=":" horiz-adv-x="534" d="M92 164q0 77 51 129.5t127 52.5q74 0 126.5 -53t52.5 -129q0 -74 -53 -127t-126 -53q-76 0 -127 53t-51 127zM92 776q0 77 51 129.5t127 52.5q74 0 126.5 -53t52.5 -129q0 -74 -53 -127t-126 -53q-76 0 -127 53t-51 127z" />
<glyph unicode=";" horiz-adv-x="534" d="M92 164q0 77 50.5 129.5t125.5 52.5q81 0 135 -61.5t54 -159.5q0 -267 -262 -442l-82 98q60 49 97.5 107t37.5 100q-60 0 -108 51t-48 125zM92 776q0 77 51 129.5t127 52.5q74 0 126.5 -53t52.5 -129q0 -74 -53 -127t-126 -53q-76 0 -127 53t-51 127z" />
<glyph unicode="&#x3c;" horiz-adv-x="1228" d="M125 463v250l979 387v-279l-692 -235l692 -236v-274z" />
<glyph unicode="=" horiz-adv-x="1228" d="M154 252v244h919v-244h-919zM154 698v244h919v-244h-919z" />
<glyph unicode="&#x3e;" horiz-adv-x="1228" d="M125 76v278l692 236l-692 235v275l979 -387v-250z" />
<glyph unicode="?" horiz-adv-x="983" d="M70 1341q174 123 397 123q116 0 209 -40t151 -124t58 -200q0 -61 -15.5 -112t-46.5 -93t-61 -71.5t-76 -65.5q-68 -54 -93.5 -96t-25.5 -111v-59h-262v71q0 126 33.5 195.5t103.5 124.5q77 60 96 82q40 46 40 112q0 61 -37.5 93t-110.5 32q-123 0 -235 -76zM254 164 q0 77 51 129.5t127 52.5q74 0 126 -53t52 -129q0 -74 -52.5 -127t-125.5 -53q-76 0 -127 53t-51 127z" />
<glyph unicode="@" horiz-adv-x="1730" d="M78 522q0 191 69 359t187.5 286t282 186t346.5 68q154 0 284.5 -51.5t218.5 -140.5t137.5 -211t49.5 -260q0 -306 -119.5 -460.5t-327.5 -154.5q-80 0 -142 30t-95 89q-36 -46 -96.5 -79t-131.5 -33q-130 0 -197 81t-67 234q0 147 37.5 260.5t103.5 181t148 101.5t178 34 q197 0 318 -81l-91 -515q-21 -118 82 -118q87 0 145 109.5t58 314.5q0 225 -134 359t-372 134q-190 0 -342 -95.5t-234.5 -258.5t-82.5 -361q0 -271 135 -425t412 -154q179 0 387 94l75 -145q-118 -68 -235 -96.5t-252 -28.5q-141 0 -260 37.5t-206 105t-148 161t-91 205.5 t-30 238zM733 473q0 -59 18 -87t62 -28q59 0 105 41l73 424q-33 11 -71 11q-89 0 -138 -101t-49 -260z" />
<glyph unicode="A" horiz-adv-x="1286" d="M37 0l405 1442h408l399 -1442h-317l-84 336h-432l-84 -336h-295zM475 567h313q1 0 -38 155.5t-78 311.5l-39 156z" />
<glyph unicode="B" horiz-adv-x="1265" d="M147 0v1440h488q104 0 192 -22t159 -67t111 -120t40 -174q0 -223 -232 -303q130 -29 202.5 -121t72.5 -227q0 -200 -127 -303t-361 -103h-545zM457 236h170q227 0 227 192q0 211 -236 211h-161v-403zM457 862h159q203 0 203 174q0 49 -17.5 83.5t-50 52t-70 25t-85.5 7.5 h-139v-342z" />
<glyph unicode="C" horiz-adv-x="1263" d="M106 715q0 121 23.5 230.5t73.5 204.5t123 164.5t178.5 109.5t232.5 40q283 0 424 -164l-172 -210q-64 56 -116 79t-130 23q-157 0 -231 -122t-74 -380q0 -225 77.5 -330.5t229.5 -105.5q76 0 141 35.5t130 97.5l174 -209q-86 -95 -189 -146.5t-253 -51.5 q-137 0 -246.5 39t-182.5 106.5t-121.5 162t-70 200.5t-21.5 227z" />
<glyph unicode="D" horiz-adv-x="1345" d="M147 0v1440h394q348 0 525 -184.5t177 -530.5q0 -348 -174 -536.5t-510 -188.5h-412zM459 250h69q215 0 301 105.5t86 369.5q0 119 -16.5 201.5t-56.5 144t-111 90.5t-176 29h-96v-940z" />
<glyph unicode="E" horiz-adv-x="1146" d="M147 0v1440h889v-252h-579v-320h465v-245h-465v-371h616v-252h-926z" />
<glyph unicode="F" horiz-adv-x="1083" d="M147 0v1440h877v-252h-565v-320h452v-245h-452v-623h-312z" />
<glyph unicode="G" horiz-adv-x="1355" d="M102 715q0 123 21.5 231t70.5 204t122 165t182.5 109t246.5 40q141 0 251.5 -41t177.5 -116l-170 -211q-61 51 -118.5 73.5t-142.5 22.5q-176 0 -242.5 -117t-66.5 -385q0 -231 70.5 -341.5t212.5 -110.5q126 0 217 81v234h-205v246h516v-799h-192l-56 135 q-127 -155 -313 -155q-148 0 -262 58t-182.5 160t-103 232.5t-34.5 284.5z" />
<glyph unicode="H" horiz-adv-x="1361" d="M147 0v1440h312v-574h444v574h311v-1440h-311v614h-444v-614h-312z" />
<glyph unicode="I" horiz-adv-x="634" d="M162 0v1440h311v-1440h-311z" />
<glyph unicode="J" horiz-adv-x="948" d="M20 129l160 205q46 -43 88 -62.5t105 -19.5t97 43.5t34 126.5v1018h311v-1010q0 -220 -107.5 -335t-316.5 -115q-239 0 -371 149z" />
<glyph unicode="K" horiz-adv-x="1292" d="M147 0v1440h312v-596l436 596h344l-455 -580l478 -860h-347l-362 659l-94 -67v-592h-312z" />
<glyph unicode="L" horiz-adv-x="1071" d="M147 0v1440h312v-1188h563v-252h-875z" />
<glyph unicode="M" horiz-adv-x="1746" d="M147 0v1440h459l203 -758q21 -77 43.5 -187t30.5 -167q30 209 67 352l191 760h458v-1440h-299v760l9 379q-63 -255 -92 -361l-216 -778h-270l-215 778l-90 361q8 -275 8 -379v-760h-287z" />
<glyph unicode="N" horiz-adv-x="1402" d="M147 0v1440h351l483 -953q-12 204 -12 347v606h286v-1440h-303l-530 1044q12 -172 12 -346v-698h-287z" />
<glyph unicode="O" horiz-adv-x="1392" d="M102 709q0 157 38 293t111 239.5t187.5 163t257.5 59.5q191 0 327 -95.5t201.5 -258t65.5 -375.5q0 -166 -39 -304.5t-113 -239t-187 -156t-255 -55.5q-189 0 -324 91.5t-202.5 254.5t-67.5 383zM428 715q0 -173 31.5 -280t88.5 -152t144 -45q132 0 201.5 116.5 t69.5 372.5q0 251 -68 365t-197 114q-132 0 -201 -117.5t-69 -373.5z" />
<glyph unicode="P" horiz-adv-x="1241" d="M147 0v1440h476q93 0 172 -14.5t149 -48.5t119 -85t77.5 -128t28.5 -175q0 -117 -40.5 -203.5t-113 -136t-161.5 -73t-197 -23.5h-200v-553h-310zM457 795h161q121 0 178.5 47.5t57.5 150.5q0 197 -215 197h-182v-395z" />
<glyph unicode="Q" horiz-adv-x="1392" d="M102 709q0 157 38 293t111 239.5t187.5 163t257.5 59.5q191 0 327 -95.5t201.5 -258t65.5 -375.5q0 -345 -160 -553l177 -188l-103 -113q-241 160 -243 160q-119 -61 -265 -61q-189 0 -324 91.5t-202.5 254.5t-67.5 383zM428 715q0 -266 68.5 -382t203.5 -116q35 0 62 6 l-139 146l174 170l131 -140q35 122 35 328q0 251 -68 365t-197 114q-132 0 -201 -117.5t-69 -373.5z" />
<glyph unicode="R" horiz-adv-x="1310" d="M147 0v1440h525q94 0 172.5 -14t146.5 -47t115 -83t73.5 -125.5t26.5 -171.5q0 -143 -72 -234t-184 -138l291 -627h-336l-260 578h-188v-578h-310zM457 815h211q116 0 169.5 46.5t53.5 142.5q0 186 -203 186h-231v-375z" />
<glyph unicode="S" horiz-adv-x="1210" d="M61 137l138 225q75 -53 179 -86.5t210 -33.5q107 0 168 41.5t61 117.5q0 20 -4 37t-14.5 32t-20.5 26t-31.5 23.5t-37 20.5t-48.5 20.5t-54.5 20t-64.5 22t-71 24.5q-59 21 -103.5 42t-93.5 57t-80.5 79t-52 107.5t-20.5 142.5q0 195 135 302t356 107q131 0 244 -27 t188 -71l-104 -236q-155 74 -317 74q-213 0 -213 -139q0 -33 11 -58t30 -42t50 -31.5t66 -26t85 -26.5q25 -7 38 -11q71 -22 122.5 -42.5t113 -59t100.5 -84.5t65.5 -118t26.5 -160q0 -192 -136 -309t-388 -117q-168 0 -304.5 44.5t-228.5 112.5z" />
<glyph unicode="T" horiz-adv-x="1132" d="M49 1188v252h1034v-252h-360v-1188h-311v1188h-363z" />
<glyph unicode="U" horiz-adv-x="1314" d="M133 543v897h311v-932q0 -133 46.5 -201.5t166.5 -68.5t165.5 68.5t45.5 201.5v932h314v-897q0 -563 -527 -563q-522 0 -522 563z" />
<glyph unicode="V" horiz-adv-x="1253" d="M31 1440h329l269 -1082l299 1082h295l-430 -1440h-349z" />
<glyph unicode="W" horiz-adv-x="1822" d="M43 1440h317l187 -1045l211 1045h317l217 -1045l197 1045h291l-316 -1440h-331l-220 991l-208 -991h-332z" />
<glyph unicode="X" horiz-adv-x="1202" d="M25 0l415 756l-385 684h344l215 -432l199 432h313l-366 -684l418 -756h-344l-246 479l-250 -479h-313z" />
<glyph unicode="Y" horiz-adv-x="1226" d="M20 1440h338l269 -561l268 561h311l-440 -844v-596h-311v596z" />
<glyph unicode="Z" horiz-adv-x="1144" d="M70 0v221l635 961h-607v258h969v-223l-639 -965h637v-252h-995z" />
<glyph unicode="[" horiz-adv-x="681" d="M135 -283v1805h506v-213h-213v-1379h213v-213h-506z" />
<glyph unicode="\" horiz-adv-x="798" d="M-16 1583h260l645 -1866h-260z" />
<glyph unicode="]" horiz-adv-x="681" d="M41 -70h213v1379h-213v213h506v-1805h-506v213z" />
<glyph unicode="^" horiz-adv-x="1191" d="M102 975l416 465h156l416 -465h-218l-276 194l-272 -194h-222z" />
<glyph unicode="_" horiz-adv-x="907" d="M-2 -102h911v-201h-911v201z" />
<glyph unicode="`" horiz-adv-x="614" d="M0 1440h360l68 -281h-205z" />
<glyph unicode="a" horiz-adv-x="1083" d="M78 289q0 168 108 246q66 50 176.5 83.5t294.5 59.5v27q0 71 -32 104t-109 33q-119 0 -297 -82l-106 205q203 118 430 118q211 0 318.5 -103.5t107.5 -293.5v-686h-193q-53 113 -55 113q-144 -133 -311 -133q-142 0 -237 83t-95 226zM383 311q0 -57 30 -84.5t79 -27.5 q40 0 84.5 16.5t80.5 46.5v223q-107 -21 -164 -41.5t-81 -48.5q-29 -32 -29 -84z" />
<glyph unicode="b" horiz-adv-x="1179" d="M133 0v1440h311v-488q41 53 112.5 92t150.5 39q179 0 287 -146t108 -382q0 -272 -110.5 -423.5t-315.5 -151.5q-96 0 -174.5 41.5t-124.5 109.5l-51 -131h-193zM444 279q58 -78 148 -78q100 0 145 85.5t45 252.5q0 292 -180 292q-86 0 -158 -79v-473z" />
<glyph unicode="c" horiz-adv-x="999" d="M78 524q0 118 33 219t95.5 177t160.5 119.5t221 43.5q107 0 189 -24.5t161 -93.5l-145 -207q-55 40 -96.5 55.5t-106.5 15.5q-97 0 -144 -79t-47 -222q0 -146 46.5 -220.5t148.5 -74.5q62 0 108.5 20t102.5 64l149 -192q-73 -73 -158.5 -109t-207.5 -36 q-129 0 -228.5 41.5t-160 116t-91 172t-30.5 214.5z" />
<glyph unicode="d" horiz-adv-x="1179" d="M78 508q0 267 112 421t297 154q144 0 248 -108v465h312v-1440h-193l-57 139q-69 -84 -139.5 -121.5t-165.5 -37.5q-187 0 -300.5 147t-113.5 381zM397 510q0 -309 181 -309q82 0 157 86v479q-57 65 -151 65q-187 0 -187 -321z" />
<glyph unicode="e" horiz-adv-x="1114" d="M78 518q0 164 56.5 291t169 200.5t265.5 73.5q97 0 175.5 -29t132.5 -80t90.5 -122.5t53.5 -154t17 -177.5v-82h-639q11 -108 60.5 -159.5t150.5 -51.5q56 0 112.5 16.5t84 30.5t82.5 45l123 -196q-95 -71 -185.5 -107t-238.5 -36q-233 0 -371.5 144.5t-138.5 393.5z M399 621h322q0 239 -154 239q-74 0 -115 -56.5t-53 -182.5z" />
<glyph unicode="f" horiz-adv-x="774" d="M49 846v213h152v76q0 173 90.5 261.5t267.5 88.5q98 0 195 -19l-33 -233q-63 10 -111 10t-73 -25.5t-25 -87.5v-71h225v-213h-225v-846h-311v846h-152z" />
<glyph unicode="g" horiz-adv-x="1101" d="M45 -139q0 70 42.5 116t129.5 76q-98 58 -98 174q0 53 38 100.5t111 69.5q-85 47 -131.5 128.5t-46.5 183.5q0 162 122.5 268t303.5 106q140 0 244 -63l289 82v-232h-152q45 -78 45 -161q0 -168 -108.5 -269.5t-311.5 -101.5q-68 0 -127 12q-37 -26 -37 -61q0 -47 64 -53 q31 -3 139 -10.5t176 -14.5q162 -19 239 -86t77 -184q0 -166 -138 -254t-415 -88q-220 0 -337.5 67.5t-117.5 194.5zM309 -100q0 -103 199 -103q264 0 264 109q0 52 -76 61q-165 23 -299 23q-38 0 -63 -25t-25 -65zM358 713q0 -83 42.5 -127.5t115.5 -44.5q76 0 116 44 t40 128q0 77 -40.5 120.5t-113.5 43.5q-75 0 -117.5 -43.5t-42.5 -120.5z" />
<glyph unicode="h" horiz-adv-x="1165" d="M133 0v1440h311v-496q131 139 297 139q303 0 303 -387v-696h-311v700q0 62 -24 94.5t-82 32.5q-45 0 -95.5 -25t-87.5 -65v-737h-311z" />
<glyph unicode="i" horiz-adv-x="602" d="M123 1300q0 64 50.5 113t127.5 49q78 0 128 -48t50 -114q0 -71 -48.5 -116t-129.5 -45q-79 0 -128.5 47.5t-49.5 113.5zM145 0v1059h312v-1059h-312z" />
<glyph unicode="j" horiz-adv-x="602" d="M-53 -367l20 220q63 -7 70 -7q59 0 83.5 31.5t24.5 108.5v1073h312v-1057q0 -197 -81 -293t-267 -96q-90 0 -162 20zM123 1300q0 64 50.5 113t127.5 49q78 0 128 -48t50 -114q0 -71 -48.5 -116t-129.5 -45q-79 0 -128.5 47.5t-49.5 113.5z" />
<glyph unicode="k" horiz-adv-x="1116" d="M133 0v1440h311v-778l281 397h328l-310 -391l353 -668h-340l-230 467l-82 -59v-408h-311z" />
<glyph unicode="l" horiz-adv-x="602" d="M145 0v1440h312v-1440h-312z" />
<glyph unicode="m" horiz-adv-x="1732" d="M133 0v1059h193l61 -162q161 186 346 186q104 0 163.5 -43.5t92.5 -119.5q153 163 328 163q69 0 122 -23t85 -59.5t52.5 -88.5t28 -104t7.5 -112v-696h-312v700q0 62 -21.5 94.5t-76.5 32.5q-78 0 -174 -86v-741h-311v700q0 62 -22 94.5t-77 32.5q-42 0 -89.5 -25 t-84.5 -65v-737h-311z" />
<glyph unicode="n" horiz-adv-x="1165" d="M133 0v1059h193l61 -162q161 186 354 186q303 0 303 -387v-696h-311v700q0 62 -24 94.5t-82 32.5q-45 0 -95.5 -25t-87.5 -65v-737h-311z" />
<glyph unicode="o" horiz-adv-x="1157" d="M78 518q0 162 61 290t176 201.5t265 73.5q223 0 361 -149.5t138 -388.5q0 -255 -133 -410t-366 -155q-232 0 -367 146.5t-135 391.5zM399 532q0 -325 183 -325q96 0 137 84.5t41 247.5q0 164 -42.5 240.5t-137.5 76.5q-181 0 -181 -324z" />
<glyph unicode="p" horiz-adv-x="1179" d="M133 -365v1424h193l61 -150q133 174 305 174q191 0 300.5 -145t109.5 -383q0 -272 -108.5 -423.5t-309.5 -151.5q-156 0 -240 106v-451h-311zM444 279q58 -78 148 -78q100 0 145 85.5t45 252.5q0 292 -180 292q-86 0 -158 -79v-473z" />
<glyph unicode="q" horiz-adv-x="1179" d="M78 508q0 270 112.5 422.5t313.5 152.5q94 0 171.5 -46t125.5 -117l53 139h193v-1424h-312v465q-100 -120 -256 -120q-179 0 -290 147.5t-111 380.5zM397 510q0 -309 181 -309q82 0 157 86v473q-56 71 -153 71q-98 0 -141.5 -81.5t-43.5 -239.5z" />
<glyph unicode="r" horiz-adv-x="839" d="M133 0v1059h182l88 -228q110 242 324 242h49v-299q-28 4 -53 4q-279 0 -279 -317v-461h-311z" />
<glyph unicode="s" horiz-adv-x="1009" d="M57 96l111 203q61 -38 149.5 -60t171.5 -22t119.5 20t36.5 64q0 11 -2.5 20t-8.5 17t-13 13.5t-20.5 11.5t-25.5 10t-33 10t-38.5 10t-47 11.5t-53.5 13.5q-72 19 -125 43.5t-97.5 63t-67.5 96.5t-23 135q0 84 33.5 148t92 102.5t133.5 57.5t163 19q240 0 377 -75 l-90 -211q-133 55 -281 55q-149 0 -149 -78q0 -17 9.5 -31t22.5 -23t40.5 -18t48 -14t60.5 -14q6 -1 9 -2q86 -19 146.5 -42t116 -63t84 -102.5t28.5 -147.5q0 -165 -120 -251t-337 -86q-107 0 -224 28.5t-196 87.5z" />
<glyph unicode="t" horiz-adv-x="823" d="M47 846v213h160l53 301h254v-301h225v-213h-225v-510q0 -70 23 -96.5t92 -26.5q38 0 108 20l37 -215q-116 -38 -237 -38q-163 0 -248.5 80t-85.5 259v527h-156z" />
<glyph unicode="u" horiz-adv-x="1165" d="M121 362v697h311v-694q0 -127 115 -127q93 0 174 67v754h311v-1059h-192l-62 145q-158 -165 -342 -165q-74 0 -130.5 22.5t-91 58t-56 87t-29.5 103t-8 111.5z" />
<glyph unicode="v" horiz-adv-x="1032" d="M25 1059h321l180 -729l181 729h301l-338 -1059h-308z" />
<glyph unicode="w" horiz-adv-x="1579" d="M29 1059h315l150 -713l155 713h297l148 -713l161 713h295l-301 -1059h-307l-154 737l-157 -737h-299z" />
<glyph unicode="x" horiz-adv-x="1075" d="M25 0l344 551l-312 508h342l156 -305l156 305h311l-311 -508l340 -551h-342l-181 344l-190 -344h-313z" />
<glyph unicode="y" horiz-adv-x="1038" d="M25 1059h321l199 -774l168 774h301l-318 -1073q-26 -86 -62.5 -151.5t-91 -116.5t-131.5 -78t-175 -27q-83 0 -175 18l33 217q82 -8 105 -8q84 0 131 26t82 85z" />
<glyph unicode="z" horiz-adv-x="1017" d="M84 0v219l479 619h-448v223h815v-203l-477 -625h481v-233h-850z" />
<glyph unicode="{" horiz-adv-x="681" d="M35 530v199h98q134 0 103 150l-54 247q-20 107 -3.5 182t70.5 122.5t127 69.5t167 22h98v-213h-66q-61 0 -84.5 -32t-17.5 -103l23 -259q8 -92 -8 -150t-51.5 -87.5t-98.5 -48.5q64 -15 99 -42.5t51 -86t8 -156.5l-23 -278q-6 -71 17.5 -103.5t84.5 -32.5h66v-213h-98 q-75 0 -136 13t-112 42t-80 75t-40.5 112t7.5 154l54 268q14 76 -10.5 112.5t-92.5 36.5h-98z" />
<glyph unicode="|" horiz-adv-x="692" d="M238 -283v1805h217v-1805h-217z" />
<glyph unicode="}" horiz-adv-x="681" d="M41 -70h65q61 0 85 32.5t18 103.5l-23 278q-8 98 8 156.5t51 86t99 42.5q-63 19 -98.5 48.5t-51.5 87.5t-8 150l23 259q6 71 -18 103t-85 32h-65v213h98q94 0 167 -22t127 -69.5t70.5 -122.5t-3.5 -182l-54 -247q-31 -150 103 -150h98v-199h-98q-68 0 -92.5 -36.5 t-10.5 -112.5l54 -268q19 -88 7.5 -154.5t-40.5 -112.5t-80 -74.5t-112 -41.5t-136 -13h-98v213z" />
<glyph unicode="~" horiz-adv-x="985" d="M84 471q0 157 62 254.5t176 97.5q53 0 117 -25.5t120.5 -51t91.5 -25.5q58 0 72 104h178q0 -161 -59.5 -258.5t-179.5 -97.5q-52 0 -115.5 25.5t-118.5 51t-88 25.5q-31 0 -51.5 -27t-26.5 -73h-178z" />
<glyph unicode="&#xa1;" horiz-adv-x="667" d="M156 1018q0 74 52.5 127t125.5 53q76 0 127 -53t51 -127q0 -77 -51 -129.5t-127 -52.5q-74 0 -126 53t-52 129zM164 -258l45 948h246l47 -948h-338z" />
<glyph unicode="&#xa2;" d="M129 524q0 148 53.5 268t160.5 197.5t253 91.5v164h123v-164q180 -14 303 -137l-158 -194q-44 37 -74 54.5t-71 24.5v-593q74 12 158 86l157 -181q-120 -140 -315 -157v-213h-123v211q-152 12 -259 87.5t-157.5 191.5t-50.5 263zM457 528q0 -252 139 -292v589 q-139 -41 -139 -297z" />
<glyph unicode="&#xa3;" d="M104 551v244h129q-47 128 -47 227q0 188 114.5 293.5t336.5 105.5q142 0 237 -29t187 -94l-125 -223q-78 42 -134 61t-122 19q-85 0 -127.5 -41.5t-42.5 -114.5q0 -86 33 -204h311v-244h-252v-23q0 -84 -39 -155t-104 -121h567v-252h-911v262q98 55 143 117.5t45 142.5 v29h-199z" />
<glyph unicode="&#xa4;" d="M63 461v172h101q-2 18 -2 57q0 47 2 70h-101v172h119q21 110 61.5 196.5t105 153.5t160.5 103t218 36q110 0 190 -31.5t158 -101.5l-151 -198q-49 38 -96 54.5t-117 16.5q-94 0 -144.5 -53t-70.5 -176h352l-43 -172h-324v-80v-47h293l-43 -172h-235q20 -117 75 -169 t158 -52q75 0 122.5 24t98.5 72l152 -205q-68 -71 -156.5 -111t-222.5 -40q-232 0 -365.5 129.5t-175.5 351.5h-119z" />
<glyph unicode="&#xa5;" horiz-adv-x="1157" d="M29 1401h338l225 -561l225 561h311l-333 -688h239v-172h-301v-109h301v-172h-301v-260h-311v260h-289v172h289v109h-289v172h227z" />
<glyph unicode="&#xa6;" horiz-adv-x="690" d="M238 360h217v-731h-217v731zM238 709v731h217v-731h-217z" />
<glyph unicode="&#xa7;" horiz-adv-x="1134" d="M94 580q0 156 162 260q-84 94 -84 225q0 166 124.5 261t311.5 95q212 0 357 -100l-115 -227q-124 69 -242 69q-149 0 -149 -94q0 -20 7 -36t17 -27.5t34 -25.5t44.5 -23.5t62 -29.5t74.5 -36q193 -96 267.5 -188.5t74.5 -249.5q0 -155 -153 -258q86 -92 86 -228 q0 -168 -116.5 -261t-324.5 -93q-237 0 -391 100l119 224q110 -66 264 -66q162 0 162 88q0 16 -3 27.5t-13.5 23.5t-20 20t-34 22t-43.5 24t-60.5 31t-73.5 38q-195 103 -269.5 195t-74.5 240zM371 606q0 -66 39.5 -104t171.5 -109q14 -7 59 -30.5t68 -36.5q55 32 55 104 q0 69 -39.5 109.5t-169.5 109.5q-124 66 -127 68q-57 -42 -57 -111z" />
<glyph unicode="&#xa8;" horiz-adv-x="602" d="M-74 1300q0 62 43.5 108t116.5 46q74 0 117 -45t43 -109q0 -69 -42 -111t-118 -42q-75 0 -117.5 44.5t-42.5 108.5zM356 1300q0 62 43.5 108t116.5 46q74 0 117 -45t43 -109q0 -69 -42 -111t-118 -42q-75 0 -117.5 44.5t-42.5 108.5z" />
<glyph unicode="&#xa9;" horiz-adv-x="1603" d="M94 721q0 159 57 299t153.5 237.5t226.5 154t272 56.5q199 0 361.5 -99.5t253.5 -270.5t91 -377q0 -128 -36.5 -244.5t-102 -207.5t-153.5 -158t-195 -102.5t-221 -35.5q-150 0 -282 59t-225 159.5t-146.5 238.5t-53.5 291zM205 715q0 -185 78 -332t212.5 -228t299.5 -81 q123 0 234 47.5t192.5 131t129.5 204t48 258.5q0 141 -48 263.5t-129.5 207.5t-192.5 133.5t-234 48.5t-232 -48.5t-188 -134t-124.5 -207.5t-45.5 -263zM403 711q0 72 13 138.5t44 130.5t77 111.5t117.5 76t160.5 28.5q100 0 169.5 -29.5t127.5 -87.5l-139 -178 q-38 29 -68 43t-69 14q-79 0 -111.5 -59t-32.5 -209q0 -114 38.5 -159.5t105.5 -45.5q31 0 57.5 11t40.5 22.5t37 34.5l153 -166q-112 -139 -293 -139q-99 0 -175.5 28t-123 72.5t-76.5 107t-41.5 124.5t-11.5 131z" />
<glyph unicode="&#xaa;" horiz-adv-x="942" d="M94 778q0 137 86 201q111 81 375 117v20q0 56 -24.5 81.5t-84.5 25.5q-87 0 -237 -70l-86 170q92 52 172 75t172 23q178 0 262 -81.5t84 -247.5v-539h-160l-45 90q-43 -45 -109.5 -75.5t-138.5 -30.5q-115 0 -190.5 63.5t-75.5 177.5zM342 803q0 -43 24.5 -64.5 t63.5 -21.5q69 0 125 47v180q-150 -33 -186 -72q-27 -30 -27 -69z" />
<glyph unicode="&#xab;" horiz-adv-x="1095" d="M74 504l229 438h268l-225 -438l232 -430h-271zM510 504l229 438h269l-226 -438l232 -430h-271z" />
<glyph unicode="&#xac;" horiz-adv-x="1378" d="M66 913l75 136q30 -20 74 -30.5t80 -10.5q57 0 57 24q0 16 -15.5 23t-74.5 23q-17 4 -26 7q-31 8 -54.5 18.5t-47.5 30.5t-37 54t-13 80q0 90 63.5 137t174.5 47q112 0 184 -37l-53 -139q-64 22 -129 22q-64 0 -64 -24q0 -8 3.5 -13t13.5 -9t18.5 -6t27.5 -6t31 -7 q37 -9 66 -21.5t57 -34t44 -58t16 -83.5q0 -78 -61 -130t-177 -52q-148 0 -233 59zM618 864v576h267l71 -342l62 342h268v-576h-180v353l-84 -353h-150l-84 353v-353h-170z" />
<glyph unicode="&#xad;" horiz-adv-x="743" d="M117 428v260h512v-260h-512z" />
<glyph unicode="&#xae;" horiz-adv-x="956" d="M88 1075q0 161 115 275t276 114q160 0 273.5 -114t113.5 -275q0 -159 -114 -274t-273 -115q-161 0 -276 115t-115 274zM158 1075q0 -139 91 -233t230 -94q136 0 226 94t90 233q0 140 -90 235t-226 95q-139 0 -230 -95t-91 -235zM309 868v422h187q166 0 166 -143 q0 -74 -68 -107l82 -172h-133l-66 148h-45v-148h-123zM432 1106h57q22 0 34 12.5t12 30.5q0 17 -11 30t-32 13h-60v-86z" />
<glyph unicode="&#xaf;" horiz-adv-x="614" d="M68 1202v213h479v-213h-479z" />
<glyph unicode="&#xb0;" horiz-adv-x="802" d="M104 1167q0 122 86 207.5t213 85.5t213 -85.5t86 -207.5t-86 -207.5t-213 -85.5t-213 85.5t-86 207.5zM272 1167q0 -63 35.5 -105t95.5 -42t96 42t36 105t-36 105.5t-96 42.5t-95.5 -42.5t-35.5 -105.5z" />
<glyph unicode="&#xb1;" horiz-adv-x="1228" d="M125 51v244h979v-244h-979zM125 680v244h362v288h254v-288h363v-244h-363v-289h-254v289h-362z" />
<glyph unicode="&#xb2;" horiz-adv-x="731" d="M51 1311q133 102 297 102q148 0 231 -78t83 -194q0 -224 -322 -393h328v-187h-596v215q207 140 275.5 203.5t68.5 136.5q0 44 -27.5 69t-69.5 25q-64 0 -176 -59z" />
<glyph unicode="&#xb3;" horiz-adv-x="731" d="M49 623l92 165q73 -45 172 -45q53 0 86 22t33 60q0 42 -32 60t-97 18h-51v176h49q53 0 83 20.5t30 53.5q0 36 -24.5 53t-63.5 17q-96 0 -172 -45l-91 149q69 47 136.5 66.5t160.5 19.5q124 0 203.5 -61t79.5 -156q0 -72 -42 -120t-109 -66q79 -14 129.5 -66.5 t50.5 -136.5q0 -124 -89.5 -192t-236.5 -68q-191 0 -297 76z" />
<glyph unicode="&#xb4;" horiz-adv-x="614" d="M186 1159l68 281h360l-223 -281h-205z" />
<glyph unicode="&#xb5;" horiz-adv-x="1165" d="M121 -365v1424h311v-694q0 -127 115 -127q93 0 174 67v754h311v-1059h-192l-62 145q-55 -57 -88.5 -86t-84 -51t-109.5 -22q-43 0 -84 18l20 -369h-311z" />
<glyph unicode="&#xb6;" horiz-adv-x="1290" d="M72 1020q0 189 123 304.5t323 115.5h715v-195h-135v-1610h-201v1610h-152v-1610h-200l2 953q-221 0 -348 120.5t-127 311.5z" />
<glyph unicode="&#xb7;" horiz-adv-x="534" d="M92 635q0 77 51 129.5t127 52.5q74 0 126.5 -53t52.5 -129q0 -74 -53 -127t-126 -53q-76 0 -127 53t-51 127z" />
<glyph unicode="&#xb8;" horiz-adv-x="614" d="M147 -375l35 105q50 -17 86 -17q72 0 72 54q0 27 -28 42.5t-101 16.5l65 174h121l-41 -84q76 -9 119 -50t43 -106q0 -78 -57 -123t-150 -45q-100 0 -164 33z" />
<glyph unicode="&#xb9;" horiz-adv-x="731" d="M84 1268l244 133h170v-686h114v-154h-473v154h125v459l-127 -41z" />
<glyph unicode="&#xba;" horiz-adv-x="989" d="M90 967q0 198 110.5 326t293.5 128q182 0 293.5 -119.5t111.5 -310.5q0 -204 -108 -329t-297 -125q-186 0 -295 117.5t-109 312.5zM354 981q0 -258 142 -258q74 0 106.5 66t32.5 194q0 132 -33.5 192t-107.5 60q-140 0 -140 -254z" />
<glyph unicode="&#xbb;" horiz-adv-x="1095" d="M82 942h270l234 -430l-230 -438h-268l225 438zM518 942h270l234 -430l-229 -438h-269l226 438z" />
<glyph unicode="&#xbc;" horiz-adv-x="1841" d="M84 1268l244 133h170v-686h114v-154h-473v154h125v459l-127 -41zM487 0l727 1401h185l-727 -1401h-185zM1087 162v160l289 518h303v-498h99v-180h-109v-162h-215v162h-367zM1294 342h160v324z" />
<glyph unicode="&#xbd;" horiz-adv-x="1841" d="M84 1268l244 133h170v-686h114v-154h-473v154h125v459l-127 -41zM446 0l728 1401h184l-727 -1401h-185zM1120 750q133 102 297 102q148 0 231 -78t83 -194q0 -225 -322 -394h328v-186h-596v215q207 140 275.5 203.5t68.5 136.5q0 44 -27.5 69t-68.5 25q-65 0 -177 -59z " />
<glyph unicode="&#xbe;" horiz-adv-x="1841" d="M49 623l92 165q73 -45 172 -45q53 0 86 22t33 60q0 42 -32 60t-97 18h-51v176h49q53 0 83 20.5t30 53.5q0 36 -24.5 53t-63.5 17q-96 0 -172 -45l-91 149q69 47 136.5 66.5t160.5 19.5q124 0 203.5 -61t79.5 -156q0 -72 -42 -120t-109 -66q79 -14 129.5 -66.5 t50.5 -136.5q0 -124 -89.5 -192t-236.5 -68q-191 0 -297 76zM504 0l727 1401h184l-727 -1401h-184zM1087 162v160l289 518h303v-498h99v-180h-109v-162h-215v162h-367zM1294 342h160v324z" />
<glyph unicode="&#xbf;" horiz-adv-x="983" d="M98 86q0 61 15.5 112t46.5 93t61 71.5t76 65.5q68 54 93.5 96t25.5 111v59h262v-71q0 -126 -33.5 -195.5t-103.5 -124.5q-5 -4 -14 -11q-47 -37 -67.5 -56t-37 -52t-16.5 -75q0 -125 147 -125q125 0 235 75l125 -215q-174 -123 -397 -123q-116 0 -209 40t-151 124.5 t-58 200.5zM373 1022q0 74 52.5 127t125.5 53q76 0 127 -53t51 -127q0 -77 -51 -129.5t-127 -52.5q-74 0 -126 53t-52 129z" />
<glyph unicode="&#xc0;" horiz-adv-x="1236" d="M37 0l405 1442h408l399 -1442h-317l-84 336h-432l-84 -336h-295zM299 1808h360l68 -280h-205zM475 567h313q1 0 -38 155.5t-78 311.5l-39 156z" />
<glyph unicode="&#xc1;" horiz-adv-x="1236" d="M37 0l405 1442h408l399 -1442h-317l-84 336h-432l-84 -336h-295zM475 567h313q1 0 -38 155.5t-78 311.5l-39 156zM508 1528l67 280h361l-223 -280h-205z" />
<glyph unicode="&#xc2;" horiz-adv-x="1236" d="M37 0l405 1442h408l399 -1442h-317l-84 336h-432l-84 -336h-295zM305 1528l219 305h238l219 -305h-219l-123 110l-121 -110h-213zM475 567h313q1 0 -38 155.5t-78 311.5l-39 156z" />
<glyph unicode="&#xc3;" horiz-adv-x="1236" d="M37 0l405 1442h408l399 -1442h-317l-84 336h-432l-84 -336h-295zM287 1528q0 143 58.5 217t150.5 74q45 0 90.5 -18.5t82 -37t60.5 -18.5q27 0 41.5 15t20.5 48h157q0 -140 -52.5 -215t-145.5 -75q-59 0 -139 36.5t-105 36.5q-26 0 -41 -15t-21 -48h-157zM475 567h313 q1 0 -38 155.5t-78 311.5l-39 156z" />
<glyph unicode="&#xc4;" horiz-adv-x="1236" d="M37 0l405 1442h408l399 -1442h-317l-84 336h-432l-84 -336h-295zM238 1669q0 62 43 108t116 46q74 0 117 -45t43 -109q0 -69 -42 -111t-118 -42q-74 0 -116.5 44.5t-42.5 108.5zM475 567h313q1 0 -38 155.5t-78 311.5l-39 156zM668 1669q0 62 43 108t116 46q74 0 117 -45 t43 -109q0 -69 -42 -111t-118 -42q-74 0 -116.5 44.5t-42.5 108.5z" />
<glyph unicode="&#xc5;" horiz-adv-x="1236" d="M37 0l405 1442h31q-65 62 -65 153q0 89 62 150t155 61t155 -61t62 -150q0 -90 -66 -153h74l399 -1442h-317l-84 336h-432l-84 -336h-295zM475 567h313q1 0 -38 155.5t-78 311.5l-39 156zM543 1595q0 -40 22 -66t60 -26t60 26t22 66t-22 66.5t-60 26.5t-60 -26.5 t-22 -66.5z" />
<glyph unicode="&#xc6;" horiz-adv-x="1904" d="M6 0l739 1440h1049v-252h-580v-320h465v-245h-465v-371h617v-252h-926v336h-416l-161 -336h-322zM600 567h305v637z" />
<glyph unicode="&#xc7;" horiz-adv-x="1275" d="M106 715q0 121 23.5 230.5t73.5 204.5t123 164.5t178.5 109.5t232.5 40q283 0 424 -164l-172 -210q-64 56 -116 79t-130 23q-157 0 -231 -122t-74 -380q0 -225 77.5 -330.5t229.5 -105.5q76 0 141 35.5t130 97.5l174 -209q-86 -95 -189 -146.5t-253 -51.5h-17l-31 -64 q76 -9 119 -50t43 -106q0 -78 -57 -123t-150 -45q-99 0 -163 33l34 105q50 -17 86 -17q72 0 72 54q0 27 -28 42.5t-101 16.5l61 164q-135 21 -235.5 87.5t-159.5 166t-87 217t-28 254.5z" />
<glyph unicode="&#xc8;" horiz-adv-x="1146" d="M147 0v1440h889v-252h-579v-320h465v-245h-465v-371h616v-252h-926zM305 1808h361l67 -280h-205z" />
<glyph unicode="&#xc9;" horiz-adv-x="1146" d="M147 0v1440h889v-252h-579v-320h465v-245h-465v-371h616v-252h-926zM502 1528l67 280h361l-223 -280h-205z" />
<glyph unicode="&#xca;" horiz-adv-x="1146" d="M147 0v1440h889v-252h-579v-320h465v-245h-465v-371h616v-252h-926zM252 1528l219 305h238l219 -305h-219l-123 110l-121 -110h-213z" />
<glyph unicode="&#xcb;" horiz-adv-x="1146" d="M147 0v1440h889v-252h-579v-320h465v-245h-465v-371h616v-252h-926zM217 1669q0 62 43.5 108t116.5 46q74 0 117 -45t43 -109q0 -69 -42 -111t-118 -42q-75 0 -117.5 44.5t-42.5 108.5zM647 1669q0 62 43.5 108t116.5 46q74 0 117 -45t43 -109q0 -69 -42 -111t-118 -42 q-75 0 -117.5 44.5t-42.5 108.5z" />
<glyph unicode="&#xcc;" horiz-adv-x="634" d="M0 1808h360l68 -280h-205zM162 0v1440h311v-1440h-311z" />
<glyph unicode="&#xcd;" horiz-adv-x="634" d="M162 0v1440h311v-1440h-311zM207 1528l67 280h361l-223 -280h-205z" />
<glyph unicode="&#xce;" horiz-adv-x="634" d="M-23 1528l220 305h237l219 -305h-219l-123 110l-121 -110h-213zM162 0v1440h311v-1440h-311z" />
<glyph unicode="&#xcf;" horiz-adv-x="634" d="M-63 1669q0 62 43 108t116 46q74 0 117 -45t43 -109q0 -69 -42 -111t-118 -42q-74 0 -116.5 44.5t-42.5 108.5zM162 0v1440h311v-1440h-311zM367 1669q0 62 43 108t116 46q74 0 117 -45t43 -109q0 -69 -42 -111t-118 -42q-74 0 -116.5 44.5t-42.5 108.5z" />
<glyph unicode="&#xd0;" horiz-adv-x="1366" d="M31 604v246h137v590h393q348 0 525.5 -185t177.5 -530q0 -348 -174 -536.5t-510 -188.5h-412v604h-137zM479 250h70q215 0 301 105.5t86 369.5q0 119 -16.5 201.5t-57 144t-111.5 90.5t-176 29h-96v-340h262v-246h-262v-354z" />
<glyph unicode="&#xd1;" horiz-adv-x="1425" d="M147 0h287v698q0 174 -12 346l530 -1044h303v1440h-286v-606q0 -143 12 -347l-483 953h-351v-1440zM393 1528q0 143 58.5 217t150.5 74q45 0 90.5 -18.5t82.5 -37t61 -18.5q26 0 40.5 14.5t20.5 48.5h158q0 -139 -53 -214.5t-146 -75.5q-59 0 -139 36.5t-105 36.5 q-26 0 -40.5 -14.5t-20.5 -48.5h-158z" />
<glyph unicode="&#xd2;" horiz-adv-x="1392" d="M102 709q0 157 38 293t111 239.5t187.5 163t257.5 59.5q191 0 327 -95.5t201.5 -258t65.5 -375.5q0 -166 -39 -304.5t-113 -239t-187 -156t-255 -55.5q-189 0 -324 91.5t-202.5 254.5t-67.5 383zM369 1808h360l68 -280h-205zM428 715q0 -173 31.5 -280t88.5 -152t144 -45 q132 0 201.5 116.5t69.5 372.5q0 251 -68 365t-197 114q-132 0 -201 -117.5t-69 -373.5z" />
<glyph unicode="&#xd3;" horiz-adv-x="1392" d="M102 709q0 157 38 293t111 239.5t187.5 163t257.5 59.5q191 0 327 -95.5t201.5 -258t65.5 -375.5q0 -166 -39 -304.5t-113 -239t-187 -156t-255 -55.5q-189 0 -324 91.5t-202.5 254.5t-67.5 383zM428 715q0 -173 31.5 -280t88.5 -152t144 -45q132 0 201.5 116.5 t69.5 372.5q0 251 -68 365t-197 114q-132 0 -201 -117.5t-69 -373.5zM596 1528l68 280h360l-223 -280h-205z" />
<glyph unicode="&#xd4;" horiz-adv-x="1392" d="M102 709q0 157 38 293t111 239.5t187.5 163t257.5 59.5q191 0 327 -95.5t201.5 -258t65.5 -375.5q0 -166 -39 -304.5t-113 -239t-187 -156t-255 -55.5q-189 0 -324 91.5t-202.5 254.5t-67.5 383zM356 1528l219 305h238l219 -305h-219l-123 110l-121 -110h-213zM428 715 q0 -173 31.5 -280t88.5 -152t144 -45q132 0 201.5 116.5t69.5 372.5q0 251 -68 365t-197 114q-132 0 -201 -117.5t-69 -373.5z" />
<glyph unicode="&#xd5;" horiz-adv-x="1392" d="M102 709q0 157 38 293t111 239.5t187.5 163t257.5 59.5q191 0 327 -95.5t201.5 -258t65.5 -375.5q0 -166 -39 -304.5t-113 -239t-187 -156t-255 -55.5q-189 0 -324 91.5t-202.5 254.5t-67.5 383zM365 1528q0 143 58.5 217t149.5 74q45 0 90.5 -18.5t82.5 -37t61 -18.5 q26 0 40.5 14.5t20.5 48.5h158q0 -139 -53 -214.5t-146 -75.5q-59 0 -138.5 36.5t-104.5 36.5q-26 0 -41 -15t-21 -48h-157zM428 715q0 -173 31.5 -280t88.5 -152t144 -45q132 0 201.5 116.5t69.5 372.5q0 251 -68 365t-197 114q-132 0 -201 -117.5t-69 -373.5z" />
<glyph unicode="&#xd6;" horiz-adv-x="1392" d="M102 709q0 157 38 293t111 239.5t187.5 163t257.5 59.5q191 0 327 -95.5t201.5 -258t65.5 -375.5q0 -166 -39 -304.5t-113 -239t-187 -156t-255 -55.5q-189 0 -324 91.5t-202.5 254.5t-67.5 383zM315 1669q0 62 43.5 108t116.5 46q74 0 117 -45t43 -109q0 -69 -42 -111 t-118 -42q-75 0 -117.5 44.5t-42.5 108.5zM428 715q0 -173 31.5 -280t88.5 -152t144 -45q132 0 201.5 116.5t69.5 372.5q0 251 -68 365t-197 114q-132 0 -201 -117.5t-69 -373.5zM745 1669q0 62 43.5 108t116.5 46q74 0 117 -45t43 -109q0 -69 -42 -111t-118 -42 q-75 0 -117.5 44.5t-42.5 108.5z" />
<glyph unicode="&#xd7;" horiz-adv-x="1228" d="M150 283q19 20 50.5 52.5t98 101.5t110.5 114.5t44 44.5q1 0 -75 78.5t-152 157.5l-76 79l159 168l305 -315l301 311l168 -164q-305 -313 -307 -315l307 -315l-168 -160l-301 309q1 1 -75.5 -77.5t-152.5 -156.5l-77 -79z" />
<glyph unicode="&#xd8;" horiz-adv-x="1392" d="M102 709q0 157 38 293t111 239.5t187.5 163t257.5 59.5q204 0 342 -104l111 162l139 -90l-133 -195q135 -193 135 -502q0 -166 -39 -304.5t-113 -239t-187 -156t-255 -55.5q-196 0 -336 98q0 1 -29 -41t-58 -85l-29 -42l-140 90l136 199q-138 192 -138 510zM424 715 q0 -131 18 -223l435 632q-66 86 -179 86q-274 0 -274 -495zM518 309q62 -76 174 -76q275 0 275 494q0 111 -17 211z" />
<glyph unicode="&#xd9;" horiz-adv-x="1314" d="M133 543v897h311v-932q0 -133 46.5 -201.5t166.5 -68.5t165.5 68.5t45.5 201.5v932h314v-897q0 -563 -527 -563q-522 0 -522 563zM334 1808h360l68 -280h-205z" />
<glyph unicode="&#xda;" horiz-adv-x="1314" d="M133 543v897h311v-932q0 -133 46.5 -201.5t166.5 -68.5t165.5 68.5t45.5 201.5v932h314v-897q0 -563 -527 -563q-522 0 -522 563zM553 1528l68 280h360l-223 -280h-205z" />
<glyph unicode="&#xdb;" horiz-adv-x="1314" d="M133 543v897h311v-932q0 -133 46.5 -201.5t166.5 -68.5t165.5 68.5t45.5 201.5v932h314v-897q0 -563 -527 -563q-522 0 -522 563zM317 1528l220 305h237l219 -305h-219l-123 110l-121 -110h-213z" />
<glyph unicode="&#xdc;" horiz-adv-x="1314" d="M133 543v897h311v-932q0 -133 46.5 -201.5t166.5 -68.5t165.5 68.5t45.5 201.5v932h314v-897q0 -563 -527 -563q-522 0 -522 563zM276 1669q0 62 43.5 108t116.5 46q74 0 117 -45t43 -109q0 -69 -42 -111t-118 -42q-75 0 -117.5 44.5t-42.5 108.5zM707 1669q0 62 43 108 t116 46q74 0 117 -45t43 -109q0 -69 -42 -111t-118 -42q-74 0 -116.5 44.5t-42.5 108.5z" />
<glyph unicode="&#xdd;" horiz-adv-x="1202" d="M20 1440h338l269 -561l268 561h311l-440 -844v-596h-311v596zM502 1528l67 280h361l-223 -280h-205z" />
<glyph unicode="&#xde;" horiz-adv-x="1241" d="M147 0v1440h310v-223h166q93 0 172 -14.5t149 -48.5t119 -85t77.5 -128t28.5 -175q0 -117 -40.5 -203.5t-113 -136t-161.5 -73t-197 -23.5h-200v-330h-310zM457 571h161q121 0 178.5 48t57.5 151q0 197 -215 197h-182v-396z" />
<glyph unicode="&#xdf;" horiz-adv-x="1210" d="M131 0v1004q0 214 123.5 337t347.5 123q203 0 322.5 -89.5t119.5 -252.5q0 -52 -17 -98.5t-41 -79t-47.5 -59.5t-40.5 -53t-17 -48t28 -52t68 -67t80 -82t68 -111.5t28 -141.5q0 -167 -106.5 -258.5t-274.5 -91.5q-150 0 -235 32l43 221q21 -9 57 -15.5t57 -6.5 q140 0 140 111q0 41 -26 80.5t-62.5 73.5t-73 70t-62.5 85t-26 104q0 47 16 88.5t39 72.5t45.5 62t38.5 71.5t16 86.5q0 58 -33.5 89.5t-97.5 31.5q-87 0 -126.5 -59.5t-39.5 -180.5v-997h-311z" />
<glyph unicode="&#xe0;" horiz-adv-x="1083" d="M78 289q0 168 108 246q66 50 176.5 83.5t294.5 59.5v27q0 71 -32 104t-109 33q-119 0 -297 -82l-106 205q203 118 430 118q211 0 318.5 -103.5t107.5 -293.5v-686h-193q-53 113 -55 113q-144 -133 -311 -133q-142 0 -237 83t-95 226zM225 1440h361l67 -281h-204zM383 311 q0 -57 30 -84.5t79 -27.5q40 0 84.5 16.5t80.5 46.5v223q-107 -21 -164 -41.5t-81 -48.5q-29 -32 -29 -84z" />
<glyph unicode="&#xe1;" horiz-adv-x="1083" d="M78 289q0 168 108 246q66 50 176.5 83.5t294.5 59.5v27q0 71 -32 104t-109 33q-119 0 -297 -82l-106 205q203 118 430 118q211 0 318.5 -103.5t107.5 -293.5v-686h-193q-53 113 -55 113q-144 -133 -311 -133q-142 0 -237 83t-95 226zM383 311q0 -57 30 -84.5t79 -27.5 q40 0 84.5 16.5t80.5 46.5v223q-107 -21 -164 -41.5t-81 -48.5q-29 -32 -29 -84zM420 1159l67 281h361l-223 -281h-205z" />
<glyph unicode="&#xe2;" horiz-adv-x="1083" d="M78 289q0 168 108 246q66 50 176.5 83.5t294.5 59.5v27q0 71 -32 104t-109 33q-119 0 -297 -82l-106 205q203 118 430 118q211 0 318.5 -103.5t107.5 -293.5v-686h-193q-53 113 -55 113q-144 -133 -311 -133q-142 0 -237 83t-95 226zM197 1159l219 305h237l219 -305h-219 l-123 111l-120 -111h-213zM383 311q0 -57 30 -84.5t79 -27.5q40 0 84.5 16.5t80.5 46.5v223q-107 -21 -164 -41.5t-81 -48.5q-29 -32 -29 -84z" />
<glyph unicode="&#xe3;" horiz-adv-x="1083" d="M78 289q0 168 108 246q66 50 176.5 83.5t294.5 59.5v27q0 71 -32 104t-109 33q-119 0 -297 -82l-106 205q203 118 430 118q211 0 318.5 -103.5t107.5 -293.5v-686h-193q-53 113 -55 113q-144 -133 -311 -133q-142 0 -237 83t-95 226zM193 1159q0 143 58.5 217t149.5 74 q45 0 90.5 -18.5t82.5 -37t61 -18.5q26 0 40.5 15t20.5 49h158q0 -140 -53 -215.5t-146 -75.5q-45 0 -93 18.5t-87 37t-63 18.5q-51 0 -62 -64h-157zM383 311q0 -57 30 -84.5t79 -27.5q40 0 84.5 16.5t80.5 46.5v223q-107 -21 -164 -41.5t-81 -48.5q-29 -32 -29 -84z" />
<glyph unicode="&#xe4;" horiz-adv-x="1083" d="M78 289q0 168 108 246q66 50 176.5 83.5t294.5 59.5v27q0 71 -32 104t-109 33q-119 0 -297 -82l-106 205q203 118 430 118q211 0 318.5 -103.5t107.5 -293.5v-686h-193q-53 113 -55 113q-144 -133 -311 -133q-142 0 -237 83t-95 226zM164 1300q0 62 43.5 108t116.5 46 q74 0 116.5 -44.5t42.5 -109.5q0 -69 -41.5 -111t-117.5 -42q-75 0 -117.5 44.5t-42.5 108.5zM383 311q0 -57 30 -84.5t79 -27.5q40 0 84.5 16.5t80.5 46.5v223q-107 -21 -164 -41.5t-81 -48.5q-29 -32 -29 -84zM594 1300q0 62 43.5 108t116.5 46q74 0 116.5 -44.5 t42.5 -109.5q0 -69 -41.5 -111t-117.5 -42q-75 0 -117.5 44.5t-42.5 108.5z" />
<glyph unicode="&#xe5;" horiz-adv-x="1083" d="M78 289q0 168 108 246q66 50 176.5 83.5t294.5 59.5v27q0 71 -32 104t-109 33q-119 0 -297 -82l-106 205q203 118 430 118q211 0 318.5 -103.5t107.5 -293.5v-686h-193q-53 113 -55 113q-144 -133 -311 -133q-142 0 -237 83t-95 226zM317 1358q0 88 62.5 149.5 t155.5 61.5t155 -61t62 -150t-62 -150t-155 -61t-155.5 61.5t-62.5 149.5zM383 311q0 -57 30 -84.5t79 -27.5q40 0 84.5 16.5t80.5 46.5v223q-107 -21 -164 -41.5t-81 -48.5q-29 -32 -29 -84zM453 1358q0 -40 22 -66t60 -26t59.5 26t21.5 66t-21.5 66t-59.5 26t-60 -26 t-22 -66z" />
<glyph unicode="&#xe6;" horiz-adv-x="1689" d="M78 279q0 172 104 253q66 51 177.5 77.5t297.5 35.5v60q0 71 -32 104t-109 33q-119 0 -297 -82l-106 205q203 118 430 118q201 0 301 -100q124 100 301 100q97 0 175.5 -29t132.5 -80t90.5 -122.5t53.5 -154t17 -177.5v-65h-641q9 -118 59 -173t154 -55q56 0 112.5 16.5 t83 30t82.5 45.5l123 -196q-95 -71 -185.5 -107t-238.5 -36q-245 0 -381 155q-78 -78 -162.5 -116.5t-199.5 -38.5q-148 0 -245 79t-97 220zM383 301q0 -51 30 -76.5t79 -25.5q104 0 200 88q-31 79 -37 172q-106 -8 -162 -23.5t-81 -44.5q-29 -32 -29 -90zM977 637h319 q0 105 -38 164t-115 59q-71 0 -112.5 -53t-53.5 -170z" />
<glyph unicode="&#xe7;" horiz-adv-x="987" d="M78 524q0 118 33 219t95.5 177t160.5 119.5t221 43.5q107 0 189 -24.5t161 -93.5l-145 -207q-55 40 -96.5 55.5t-106.5 15.5q-97 0 -144 -79t-47 -222q0 -146 46.5 -220.5t148.5 -74.5q62 0 108.5 20t102.5 64l149 -192q-73 -73 -157.5 -109t-204.5 -36l-31 -64 q76 -9 119 -50t43 -106q0 -78 -57 -123t-150 -45q-100 0 -164 33l35 105q50 -17 86 -17q72 0 72 54q0 27 -28 42.5t-101 16.5l61 162q-134 22 -225.5 99t-132.5 187t-41 250z" />
<glyph unicode="&#xe8;" horiz-adv-x="1122" d="M78 518q0 164 56.5 291t169 200.5t265.5 73.5q97 0 175.5 -29t132.5 -80t90.5 -122.5t53.5 -154t17 -177.5v-82h-639q11 -108 60.5 -159.5t150.5 -51.5q56 0 112.5 16.5t84 30.5t82.5 45l123 -196q-95 -71 -185.5 -107t-238.5 -36q-233 0 -371.5 144.5t-138.5 393.5z M252 1440h360l68 -281h-205zM399 621h322q0 239 -154 239q-74 0 -115 -56.5t-53 -182.5z" />
<glyph unicode="&#xe9;" horiz-adv-x="1122" d="M78 518q0 164 56.5 291t169 200.5t265.5 73.5q97 0 175.5 -29t132.5 -80t90.5 -122.5t53.5 -154t17 -177.5v-82h-639q11 -108 60.5 -159.5t150.5 -51.5q56 0 112.5 16.5t84 30.5t82.5 45l123 -196q-95 -71 -185.5 -107t-238.5 -36q-233 0 -371.5 144.5t-138.5 393.5z M399 621h322q0 239 -154 239q-74 0 -115 -56.5t-53 -182.5zM465 1159l67 281h361l-223 -281h-205z" />
<glyph unicode="&#xea;" horiz-adv-x="1122" d="M78 518q0 164 56.5 291t169 200.5t265.5 73.5q97 0 175.5 -29t132.5 -80t90.5 -122.5t53.5 -154t17 -177.5v-82h-639q11 -108 60.5 -159.5t150.5 -51.5q56 0 112.5 16.5t84 30.5t82.5 45l123 -196q-95 -71 -185.5 -107t-238.5 -36q-233 0 -371.5 144.5t-138.5 393.5z M227 1159l219 305h238l219 -305h-219l-123 111l-121 -111h-213zM399 621h322q0 239 -154 239q-74 0 -115 -56.5t-53 -182.5z" />
<glyph unicode="&#xeb;" horiz-adv-x="1122" d="M78 518q0 164 56.5 291t169 200.5t265.5 73.5q97 0 175.5 -29t132.5 -80t90.5 -122.5t53.5 -154t17 -177.5v-82h-639q11 -108 60.5 -159.5t150.5 -51.5q56 0 112.5 16.5t84 30.5t82.5 45l123 -196q-95 -71 -185.5 -107t-238.5 -36q-233 0 -371.5 144.5t-138.5 393.5z M193 1300q0 62 43 108t116 46q74 0 117 -45t43 -109q0 -69 -42 -111t-118 -42q-74 0 -116.5 44.5t-42.5 108.5zM399 621h322q0 239 -154 239q-74 0 -115 -56.5t-53 -182.5zM623 1300q0 62 43 108t116 46q74 0 117 -45t43 -109q0 -69 -42 -111t-118 -42q-74 0 -116.5 44.5 t-42.5 108.5z" />
<glyph unicode="&#xec;" horiz-adv-x="583" d="M-16 1440h360l68 -281h-205zM145 0v1059h293v-1059h-293z" />
<glyph unicode="&#xed;" horiz-adv-x="583" d="M145 0v1059h293v-1059h-293zM170 1159l68 281h360l-223 -281h-205z" />
<glyph unicode="&#xee;" horiz-adv-x="583" d="M-49 1159l219 305h238l219 -305h-219l-123 111l-121 -111h-213zM145 0v1059h293v-1059h-293z" />
<glyph unicode="&#xef;" horiz-adv-x="583" d="M-90 1300q0 62 43.5 108t116.5 46q74 0 116.5 -44.5t42.5 -109.5q0 -69 -41.5 -111t-117.5 -42q-75 0 -117.5 44.5t-42.5 108.5zM145 0v1059h293v-1059h-293zM340 1300q0 62 43.5 108t116.5 46q74 0 116.5 -44.5t42.5 -109.5q0 -69 -41.5 -111t-117.5 -42 q-75 0 -117.5 44.5t-42.5 108.5z" />
<glyph unicode="&#xf0;" horiz-adv-x="1157" d="M78 498q0 223 114 358t314 135q105 0 174 -57q-42 89 -111 192q0 1 -47.5 -18.5t-95.5 -39.5l-47 -19l-66 145l156 63q-92 109 -174 183h332q36 -21 94 -76l194 80l66 -146q-145 -59 -147 -61q107 -135 176 -306.5t69 -359.5q0 -291 -128 -441t-361 -150 q-240 0 -376 139.5t-136 378.5zM399 492q0 -135 45 -210t138 -75q95 0 136.5 75.5t41.5 215.5t-43 208t-137 68q-181 0 -181 -282z" />
<glyph unicode="&#xf1;" horiz-adv-x="1165" d="M133 0v1059h193l61 -162q161 186 354 186q303 0 303 -387v-696h-311v700q0 62 -24 94.5t-82 32.5q-45 0 -95.5 -25t-87.5 -65v-737h-311zM264 1159q0 143 58.5 217t150.5 74q45 0 90.5 -18.5t82.5 -37t61 -18.5q26 0 40.5 15t20.5 49h158q0 -140 -53 -215.5t-146 -75.5 q-45 0 -93 18.5t-87.5 37t-63.5 18.5q-26 0 -40.5 -15t-20.5 -49h-158z" />
<glyph unicode="&#xf2;" horiz-adv-x="1157" d="M78 518q0 162 61 290t176 201.5t265 73.5q223 0 361 -149.5t138 -388.5q0 -255 -133 -410t-366 -155q-232 0 -367 146.5t-135 391.5zM270 1440h361l67 -281h-204zM399 532q0 -325 183 -325q96 0 137 84.5t41 247.5q0 164 -42.5 240.5t-137.5 76.5q-181 0 -181 -324z" />
<glyph unicode="&#xf3;" horiz-adv-x="1157" d="M78 518q0 162 61 290t176 201.5t265 73.5q223 0 361 -149.5t138 -388.5q0 -255 -133 -410t-366 -155q-232 0 -367 146.5t-135 391.5zM399 532q0 -325 183 -325q96 0 137 84.5t41 247.5q0 164 -42.5 240.5t-137.5 76.5q-181 0 -181 -324zM457 1159l67 281h361l-223 -281 h-205z" />
<glyph unicode="&#xf4;" horiz-adv-x="1157" d="M78 518q0 162 61 290t176 201.5t265 73.5q223 0 361 -149.5t138 -388.5q0 -255 -133 -410t-366 -155q-232 0 -367 146.5t-135 391.5zM238 1159l219 305h237l219 -305h-219l-123 111l-120 -111h-213zM399 532q0 -325 183 -325q96 0 137 84.5t41 247.5q0 164 -42.5 240.5 t-137.5 76.5q-181 0 -181 -324z" />
<glyph unicode="&#xf5;" horiz-adv-x="1157" d="M78 518q0 162 61 290t176 201.5t265 73.5q223 0 361 -149.5t138 -388.5q0 -255 -133 -410t-366 -155q-232 0 -367 146.5t-135 391.5zM246 1159q0 143 58.5 217t150.5 74q45 0 90.5 -18.5t82 -37t60.5 -18.5q51 0 62 64h157q0 -140 -52.5 -215.5t-145.5 -75.5 q-45 0 -93 18.5t-87.5 37t-63.5 18.5q-51 0 -62 -64h-157zM399 532q0 -325 183 -325q96 0 137 84.5t41 247.5q0 164 -42.5 240.5t-137.5 76.5q-181 0 -181 -324z" />
<glyph unicode="&#xf6;" horiz-adv-x="1157" d="M78 518q0 162 61 290t176 201.5t265 73.5q223 0 361 -149.5t138 -388.5q0 -255 -133 -410t-366 -155q-232 0 -367 146.5t-135 391.5zM197 1300q0 62 43 108t116 46q74 0 117 -45t43 -109q0 -69 -42 -111t-118 -42q-74 0 -116.5 44.5t-42.5 108.5zM399 532 q0 -325 183 -325q96 0 137 84.5t41 247.5q0 164 -42.5 240.5t-137.5 76.5q-181 0 -181 -324zM627 1300q0 62 43 108t116 46q74 0 117 -45t43 -109q0 -69 -42 -111t-118 -42q-74 0 -116.5 44.5t-42.5 108.5z" />
<glyph unicode="&#xf7;" horiz-adv-x="1228" d="M125 475v244h979v-244h-979zM457 219q0 70 44 116t113 46q66 0 112 -46.5t46 -115.5q0 -66 -46 -113t-112 -47q-68 0 -112.5 46.5t-44.5 113.5zM457 973q0 70 44 116t113 46q66 0 112 -46.5t46 -115.5q0 -66 -46 -113t-112 -47q-68 0 -112.5 46.5t-44.5 113.5z" />
<glyph unicode="&#xf8;" horiz-adv-x="1157" d="M78 518q0 162 61 290t176 201.5t265 73.5q151 0 264 -69l92 127l115 -82q-46 -61 -99 -137q127 -149 127 -377q0 -255 -133 -410t-366 -155q-149 0 -263 63l-98 -137l-115 82l105 143q-131 147 -131 387zM391 532q0 -65 10 -133l297 412q-42 51 -118 51q-92 0 -140.5 -83 t-48.5 -247zM467 250q43 -49 115 -49q186 0 186 338q0 72 -8 116q0 1 -73 -100.5t-147 -202.5z" />
<glyph unicode="&#xf9;" horiz-adv-x="1165" d="M121 362v697h311v-694q0 -127 115 -127q93 0 174 67v754h311v-1059h-192l-62 145q-158 -165 -342 -165q-74 0 -130.5 22.5t-91 58t-56 87t-29.5 103t-8 111.5zM262 1440h361l67 -281h-205z" />
<glyph unicode="&#xfa;" horiz-adv-x="1165" d="M121 362v697h311v-694q0 -127 115 -127q93 0 174 67v754h311v-1059h-192l-62 145q-158 -165 -342 -165q-74 0 -130.5 22.5t-91 58t-56 87t-29.5 103t-8 111.5zM477 1159l68 281h360l-223 -281h-205z" />
<glyph unicode="&#xfb;" horiz-adv-x="1165" d="M121 362v697h311v-694q0 -127 115 -127q93 0 174 67v754h311v-1059h-192l-62 145q-158 -165 -342 -165q-74 0 -130.5 22.5t-91 58t-56 87t-29.5 103t-8 111.5zM242 1159l219 305h237l220 -305h-220l-123 111l-120 -111h-213z" />
<glyph unicode="&#xfc;" horiz-adv-x="1165" d="M121 362v697h311v-694q0 -127 115 -127q93 0 174 67v754h311v-1059h-192l-62 145q-158 -165 -342 -165q-74 0 -130.5 22.5t-91 58t-56 87t-29.5 103t-8 111.5zM201 1300q0 62 43 108t116 46q74 0 117 -45t43 -109q0 -69 -42 -111t-118 -42q-74 0 -116.5 44.5t-42.5 108.5 zM631 1300q0 62 43.5 108t116.5 46q74 0 116.5 -44.5t42.5 -109.5q0 -69 -41.5 -111t-117.5 -42q-75 0 -117.5 44.5t-42.5 108.5z" />
<glyph unicode="&#xfd;" horiz-adv-x="1038" d="M25 1059h321l199 -774l168 774h301l-318 -1073q-26 -86 -62.5 -151.5t-91 -116.5t-131.5 -78t-175 -27q-83 0 -175 18l33 217q82 -8 105 -8q84 0 131 26t82 85zM416 1159l67 281h361l-223 -281h-205z" />
<glyph unicode="&#xfe;" horiz-adv-x="1179" d="M133 -365v1805h311v-488q41 53 112.5 92t150.5 39q179 0 287 -146t108 -382q0 -272 -108.5 -423.5t-309.5 -151.5q-156 0 -240 106v-451h-311zM444 279q58 -78 148 -78q100 0 145 85.5t45 252.5q0 292 -180 292q-86 0 -158 -79v-473z" />
<glyph unicode="&#xff;" horiz-adv-x="1038" d="M25 1059h321l199 -774l168 774h301l-318 -1073q-26 -86 -62.5 -151.5t-91 -116.5t-131.5 -78t-175 -27q-83 0 -175 18l33 217q82 -8 105 -8q84 0 131 26t82 85zM150 1300q0 62 43 108t116 46q74 0 117 -45t43 -109q0 -69 -42 -111t-118 -42q-74 0 -116.5 44.5 t-42.5 108.5zM580 1300q0 62 43 108t116 46q74 0 117 -45t43 -109q0 -69 -42 -111t-118 -42q-74 0 -116.5 44.5t-42.5 108.5z" />
<glyph unicode="&#x152;" horiz-adv-x="1957" d="M102 709q0 157 37.5 293t107.5 239.5t180 163t247 59.5q191 0 305 -133v109h868v-252h-579v-320h465v-245h-465v-371h616v-252h-905v121q-115 -141 -305 -141q-271 0 -421.5 197.5t-150.5 531.5zM428 715q0 -173 31.5 -280t88.5 -152t144 -45q132 0 201.5 116.5 t69.5 372.5q0 251 -68 365t-197 114q-132 0 -201 -117.5t-69 -373.5z" />
<glyph unicode="&#x153;" horiz-adv-x="1796" d="M78 518q0 162 61 290t176 201.5t265 73.5q221 0 338 -155q114 155 333 155q97 0 175.5 -29t132.5 -80t90.5 -122.5t53.5 -154t17 -177.5v-82h-639q11 -108 60.5 -159.5t150.5 -51.5q56 0 112.5 16.5t84 30.5t82.5 45l123 -196q-95 -71 -185.5 -107t-238.5 -36 q-233 0 -352 153q-115 -153 -338 -153q-232 0 -367 146.5t-135 391.5zM399 532q0 -325 183 -325q96 0 137 84.5t41 247.5q0 164 -42.5 240.5t-137.5 76.5q-181 0 -181 -324zM1081 621h322q0 239 -154 239q-74 0 -115 -56.5t-53 -182.5z" />
<glyph unicode="&#x178;" horiz-adv-x="1226" d="M20 1440h338l269 -561l268 561h311l-440 -844v-596h-311v596zM248 1669q0 62 43.5 108t116.5 46q74 0 116.5 -44.5t42.5 -109.5q0 -69 -41.5 -111t-117.5 -42q-75 0 -117.5 44.5t-42.5 108.5zM678 1669q0 62 43.5 108t116.5 46q74 0 116.5 -44.5t42.5 -109.5 q0 -69 -41.5 -111t-117.5 -42q-75 0 -117.5 44.5t-42.5 108.5z" />
<glyph unicode="&#x2c6;" horiz-adv-x="614" d="M-33 1159l219 305h238l219 -305h-219l-123 111l-121 -111h-213z" />
<glyph unicode="&#x2dc;" horiz-adv-x="614" d="M-25 1159q0 143 58.5 217t150.5 74q45 0 90.5 -18.5t82.5 -37t61 -18.5q26 0 40.5 15t20.5 49h158q0 -140 -53 -215.5t-146 -75.5q-45 0 -93 18.5t-87 37t-63 18.5q-51 0 -62 -64h-158z" />
<glyph unicode="&#x2000;" horiz-adv-x="916" />
<glyph unicode="&#x2001;" horiz-adv-x="1833" />
<glyph unicode="&#x2002;" horiz-adv-x="916" />
<glyph unicode="&#x2003;" horiz-adv-x="1833" />
<glyph unicode="&#x2004;" horiz-adv-x="611" />
<glyph unicode="&#x2005;" horiz-adv-x="458" />
<glyph unicode="&#x2006;" horiz-adv-x="305" />
<glyph unicode="&#x2007;" horiz-adv-x="305" />
<glyph unicode="&#x2008;" horiz-adv-x="229" />
<glyph unicode="&#x2009;" horiz-adv-x="366" />
<glyph unicode="&#x200a;" horiz-adv-x="101" />
<glyph unicode="&#x2010;" horiz-adv-x="743" d="M117 428v260h512v-260h-512z" />
<glyph unicode="&#x2011;" horiz-adv-x="743" d="M117 428v260h512v-260h-512z" />
<glyph unicode="&#x2012;" horiz-adv-x="743" d="M117 428v260h512v-260h-512z" />
<glyph unicode="&#x2013;" horiz-adv-x="1173" d="M117 436v244h940v-244h-940z" />
<glyph unicode="&#x2014;" horiz-adv-x="2013" d="M117 436v244h1779v-244h-1779z" />
<glyph unicode="&#x2018;" horiz-adv-x="514" d="M82 1022q0 138 69 251t189 193l88 -96q-60 -50 -101.5 -113.5t-41.5 -107.5q57 0 102 -47.5t45 -118.5q0 -74 -49 -124t-121 -50q-78 0 -129 59t-51 154z" />
<glyph unicode="&#x2019;" horiz-adv-x="514" d="M82 1286q0 74 49 124t121 50q78 0 129 -59t51 -154q0 -138 -69 -251t-189 -193l-88 96q60 50 101.5 113.5t41.5 107.5q-57 0 -102 47.5t-45 118.5z" />
<glyph unicode="&#x201a;" horiz-adv-x="514" d="M82 160q0 74 49 124t121 50q78 0 129 -59t51 -154q0 -138 -69 -251.5t-189 -193.5l-88 97q60 50 101.5 113.5t41.5 107.5q-57 0 -102 47.5t-45 118.5z" />
<glyph unicode="&#x201c;" horiz-adv-x="968" d="M82 1022q0 138 69 251t189 193l88 -96q-60 -50 -101.5 -113.5t-41.5 -107.5q57 0 102 -47.5t45 -118.5q0 -74 -49 -124t-121 -50q-78 0 -129 59t-51 154zM537 1022q0 138 69 251t189 193l88 -96q-61 -50 -102.5 -113.5t-41.5 -107.5q57 0 102.5 -47.5t45.5 -118.5 q0 -74 -49 -124t-121 -50q-78 0 -129 59t-51 154z" />
<glyph unicode="&#x201d;" horiz-adv-x="968" d="M82 1286q0 74 49 124t121 50q78 0 129 -59t51 -154q0 -138 -69 -251t-189 -193l-88 96q60 50 101.5 113.5t41.5 107.5q-57 0 -102 47.5t-45 118.5zM537 1286q0 74 49 124t121 50q78 0 129 -59t51 -154q0 -138 -69 -251t-189 -193l-88 96q60 50 101.5 113.5t41.5 107.5 q-57 0 -102 47.5t-45 118.5z" />
<glyph unicode="&#x201e;" horiz-adv-x="968" d="M82 160q0 74 49 124t121 50q78 0 129 -59t51 -154q0 -138 -69 -251.5t-189 -193.5l-88 97q60 50 101.5 113.5t41.5 107.5q-57 0 -102 47.5t-45 118.5zM537 160q0 74 49 124t121 50q78 0 129 -59t51 -154q0 -138 -69 -251.5t-189 -193.5l-88 97q60 50 101.5 113.5 t41.5 107.5q-57 0 -102 47.5t-45 118.5z" />
<glyph unicode="&#x2022;" horiz-adv-x="931" d="M111 668q0 154 101.5 258t254.5 104q154 0 254 -104t100 -258t-100.5 -259.5t-253.5 -105.5t-254.5 105.5t-101.5 259.5z" />
<glyph unicode="&#x2026;" horiz-adv-x="1785" d="M92 164q0 77 51 129.5t127 52.5q74 0 126.5 -53t52.5 -129q0 -74 -53 -127t-126 -53q-76 0 -127 53t-51 127zM715 164q0 77 51 129.5t127 52.5q74 0 126 -53t52 -129q0 -74 -52.5 -127t-125.5 -53q-76 0 -127 53t-51 127zM1337 164q0 77 51.5 129.5t127.5 52.5 q74 0 126 -53t52 -129q0 -74 -52.5 -127t-125.5 -53q-76 0 -127.5 53t-51.5 127z" />
<glyph unicode="&#x202f;" horiz-adv-x="366" />
<glyph unicode="&#x2039;" horiz-adv-x="659" d="M74 504l229 438h268l-225 -438l232 -430h-271z" />
<glyph unicode="&#x203a;" horiz-adv-x="659" d="M82 942h270l234 -430l-230 -438h-268l225 438z" />
<glyph unicode="&#x205f;" horiz-adv-x="458" />
<glyph unicode="&#x20ac;" d="M63 461v172h101q-2 18 -2 57q0 47 2 70h-101v172h119q21 110 61.5 196.5t105 153.5t160.5 103t218 36q110 0 190 -31.5t158 -101.5l-151 -198q-49 38 -96 54.5t-117 16.5q-94 0 -144.5 -53t-70.5 -176h352l-43 -172h-324v-80v-47h293l-43 -172h-235q20 -117 75 -169 t158 -52q75 0 122.5 24t98.5 72l152 -205q-68 -71 -156.5 -111t-222.5 -40q-232 0 -365.5 129.5t-175.5 351.5h-119z" />
<glyph unicode="&#x2122;" horiz-adv-x="1382" d="M63 1292v148h474v-148h-146v-428h-182v428h-146zM623 864v576h266l72 -342l61 342h268v-576h-180v353l-84 -353h-149l-84 353v-353h-170z" />
<glyph unicode="&#xe000;" horiz-adv-x="1054" d="M0 0v1055h1055v-1055h-1055z" />
<glyph unicode="&#xfb01;" horiz-adv-x="1335" d="M49 846v213h152v76q0 173 90.5 261.5t267.5 88.5q98 0 195 -19l-33 -233q-63 10 -111 10t-73 -25.5t-25 -87.5v-71h213v-213h-213v-846h-311v846h-152zM856 1300q0 64 50.5 113t127.5 49q78 0 128 -48t50 -114q0 -71 -48.5 -116t-129.5 -45q-79 0 -128.5 47.5 t-49.5 113.5zM879 0v1059h311v-1059h-311z" />
<glyph unicode="&#xfb02;" horiz-adv-x="1335" d="M49 846v213h152v76q0 173 90.5 261.5t267.5 88.5q98 0 195 -19l-33 -233q-63 10 -111 10t-73 -25.5t-25 -87.5v-71h213v-213h-213v-846h-311v846h-152zM879 0v1440h311v-1440h-311z" />
</font>
</defs>
</svg>
